<svg width="30" height="36" viewBox="0 0 30 36" fill="none" xmlns="http://www.w3.org/2000/svg">
<path d="M15.067 35.9977C15.0026 35.9977 14.9372 35.9941 14.8723 35.9908L14.8064 35.9877L14.7405 35.9908C14.6127 35.9977 14.4804 36.0082 14.3675 35.9657C7.22602 35.396 0 26.4686 0 18.1586C0 10.9511 10.0878 10.1731 14.425 10.1731C14.5627 10.1731 14.6922 10.1739 14.8125 10.1754C14.9208 10.1741 15.0501 10.1731 15.1881 10.1731C17.0458 10.1731 20.6247 10.329 23.7208 11.3724C27.5751 12.6716 29.6128 15.0183 29.6128 18.1586C29.6128 26.472 22.3811 35.4037 15.2368 35.9665C15.1832 35.9867 15.1262 35.9977 15.067 35.9977ZM14.4247 11.1952C10.3949 11.1952 1.02163 11.8739 1.02163 18.1583C1.02163 25.9004 7.98937 34.5346 14.577 34.9556C14.6092 34.9576 14.6406 34.9625 14.671 34.9707C14.6756 34.9702 14.6799 34.9702 14.6845 34.9696L14.7872 34.9645C14.8 34.964 14.8128 34.964 14.8253 34.9645L14.928 34.9696C14.9323 34.9702 14.9367 34.9702 14.941 34.9707C14.9714 34.9627 15.0028 34.9576 15.035 34.9556C21.6226 34.5349 28.5904 25.9004 28.5904 18.1583C28.5904 11.8739 19.2174 11.1952 15.1875 11.1952C15.0539 11.1952 14.9288 11.196 14.812 11.1975C14.6838 11.1963 14.5581 11.1952 14.4247 11.1952Z" fill="white"/>
<path d="M18.2784 11.1305C18.2113 11.1305 18.143 11.1172 18.0774 11.0888C17.8191 10.9774 17.6988 10.6793 17.8086 10.4204C17.859 10.3018 18.9869 7.74301 22.847 6.2457C21.4897 5.72198 19.1248 5.18777 17.2016 6.72699C17.0399 6.85633 16.8164 6.8755 16.635 6.77504C16.4539 6.67459 16.3512 6.47497 16.3749 6.26921C16.3798 6.2278 16.8184 2.05513 14.043 0.988766C13.7796 0.887549 13.648 0.591823 13.7492 0.328299C13.8504 0.0647753 14.1454 -0.0668572 14.4093 0.0343605C16.9653 1.01638 17.393 3.81827 17.427 5.35442C20.6748 3.59538 24.315 5.78996 24.4818 5.89246C24.6545 5.99879 24.748 6.19714 24.7202 6.39804C24.6923 6.59894 24.5485 6.76432 24.3533 6.81979C19.999 8.0551 18.7603 10.7951 18.7483 10.8227C18.6645 11.0149 18.4759 11.1305 18.2784 11.1305Z" fill="white"/>
<path d="M10.1731 11.1318C9.97512 11.1318 9.78659 11.0157 9.70356 10.8225C9.68823 10.7875 8.4469 8.05333 4.09877 6.8198C3.90359 6.76433 3.75976 6.59895 3.73191 6.39805C3.70406 6.19715 3.79756 5.9988 3.97026 5.89247C4.13708 5.78972 7.77679 3.59514 11.0254 5.35419C11.0593 3.81777 11.4873 1.01613 14.043 0.0341153C14.3064 -0.0671024 14.602 0.0645379 14.7031 0.328062C14.8043 0.591586 14.6727 0.887311 14.4093 0.988529C11.6242 2.05873 12.0725 6.22705 12.0774 6.26897C12.1012 6.47473 11.9985 6.67461 11.8173 6.77506C11.6359 6.87551 11.4127 6.85634 11.2507 6.72701C9.32776 5.18804 6.96286 5.72173 5.60528 6.24596C9.46571 7.74327 10.5934 10.3021 10.6437 10.4207C10.7541 10.6806 10.633 10.9807 10.3732 11.0911C10.3075 11.1187 10.2398 11.1318 10.1731 11.1318Z" fill="white"/>
<path d="M10.1889 18.6698C9.35221 18.6698 8.72119 17.673 8.72119 16.351C8.72119 15.0296 9.35221 14.033 10.1889 14.033C11.0255 14.033 11.6563 15.0296 11.6563 16.351C11.6563 17.6727 11.0255 18.6698 10.1889 18.6698ZM10.1889 15.0551C10.1007 15.0551 9.74308 15.4717 9.74308 16.3507C9.74308 17.2303 10.1007 17.6472 10.1889 17.6472C10.277 17.6472 10.6344 17.2303 10.6344 16.3507C10.6344 15.4717 10.277 15.0551 10.1889 15.0551Z" fill="white"/>
<path d="M19.2206 18.6698C18.3837 18.6698 17.7527 17.673 17.7527 16.351C17.7527 15.0296 18.3837 14.033 19.2206 14.033C20.057 14.033 20.6878 15.0296 20.6878 16.351C20.6881 17.6727 20.057 18.6698 19.2206 18.6698ZM19.2206 15.0551C19.1322 15.0551 18.7746 15.4717 18.7746 16.3507C18.7746 17.2303 19.1322 17.6472 19.2206 17.6472C19.3088 17.6472 19.6659 17.2303 19.6659 16.3507C19.6662 15.4717 19.3088 15.0551 19.2206 15.0551Z" fill="white"/>
<path d="M15.1828 22.8153C14.3461 22.8153 13.7151 21.8187 13.7151 20.4967C13.7151 19.1753 14.3461 18.1787 15.1828 18.1787C16.0192 18.1787 16.6499 19.1753 16.6499 20.4967C16.6499 21.8187 16.0192 22.8153 15.1828 22.8153ZM15.1828 19.2011C15.0946 19.2011 14.737 19.6177 14.737 20.4967C14.737 21.376 15.0946 21.7929 15.1828 21.7929C15.2709 21.7929 15.6281 21.376 15.6281 20.4967C15.6281 19.6177 15.2709 19.2011 15.1828 19.2011Z" fill="white"/>
<path d="M15.1828 32.0641C14.3461 32.0641 13.7151 31.0675 13.7151 29.7455C13.7151 28.4241 14.3461 27.4275 15.1828 27.4275C16.0192 27.4275 16.6499 28.4241 16.6499 29.7455C16.6499 31.0672 16.0192 32.0641 15.1828 32.0641ZM15.1828 28.4496C15.0946 28.4496 14.737 28.8663 14.737 29.7453C14.737 30.6245 15.0946 31.0414 15.1828 31.0414C15.2709 31.0414 15.6281 30.6245 15.6281 29.7453C15.6281 28.8663 15.2709 28.4496 15.1828 28.4496Z" fill="white"/>
<path d="M9.76383 27.3334C8.92716 27.3334 8.29614 26.3365 8.29614 25.0146C8.29614 23.6929 8.92716 22.6965 9.76383 22.6965C10.6002 22.6965 11.231 23.6929 11.231 25.0146C11.231 26.3365 10.6002 27.3334 9.76383 27.3334ZM9.76383 23.7187C9.67569 23.7187 9.31803 24.1356 9.31803 25.0143C9.31803 25.8936 9.67569 26.3107 9.76383 26.3107C9.85196 26.3107 10.2091 25.8936 10.2091 25.0143C10.2091 24.1356 9.85196 23.7187 9.76383 23.7187Z" fill="white"/>
<path d="M5.19548 22.8153C4.35856 22.8153 3.72754 21.8187 3.72754 20.4967C3.72754 19.1753 4.35856 18.1787 5.19548 18.1787C6.0319 18.1787 6.66265 19.1753 6.66265 20.4967C6.66265 21.8187 6.0319 22.8153 5.19548 22.8153ZM5.19548 19.2011C5.10709 19.2011 4.74943 19.6177 4.74943 20.4967C4.74943 21.376 5.10709 21.7929 5.19548 21.7929C5.28362 21.7929 5.64076 21.376 5.64076 20.4967C5.64076 19.6177 5.28362 19.2011 5.19548 19.2011Z" fill="white"/>
<path d="M19.2206 27.3334C18.3837 27.3334 17.7527 26.3365 17.7527 25.0146C17.7527 23.6929 18.3837 22.6965 19.2206 22.6965C20.057 22.6965 20.6878 23.6929 20.6878 25.0146C20.6881 26.3365 20.057 27.3334 19.2206 27.3334ZM19.2206 23.7187C19.1322 23.7187 18.7746 24.1356 18.7746 25.0143C18.7746 25.8936 19.1322 26.3107 19.2206 26.3107C19.3088 26.3107 19.6659 25.8936 19.6659 25.0143C19.6662 24.1356 19.3088 23.7187 19.2206 23.7187Z" fill="white"/>
<path d="M23.6974 22.2843C22.8608 22.2843 22.2297 21.2875 22.2297 19.9655C22.2297 18.6441 22.8608 17.6475 23.6974 17.6475C24.5338 17.6475 25.1646 18.6441 25.1646 19.9655C25.1646 21.2875 24.5338 22.2843 23.6974 22.2843ZM23.6974 18.6699C23.6093 18.6699 23.2516 19.0865 23.2516 19.9655C23.2516 20.845 23.6093 21.2619 23.6974 21.2619C23.7856 21.2619 24.1427 20.845 24.1427 19.9655C24.1427 19.0865 23.7856 18.6699 23.6974 18.6699Z" fill="white"/>
</svg>
