<svg width="33" height="33" viewBox="0 0 33 33" fill="none" xmlns="http://www.w3.org/2000/svg">
<path d="M32.4307 27.069C32.1155 27.069 31.8615 26.804 31.8615 26.475V1.18898H7.63169C7.31644 1.18898 7.0625 0.923961 7.0625 0.594977C7.0625 0.265993 7.31644 0.000976562 7.63169 0.000976562H32.4307C32.7459 0.000976562 32.9999 0.265993 32.9999 0.594977V26.475C32.9999 26.804 32.7459 27.069 32.4307 27.069Z" fill="white"/>
<path d="M25.3727 32.9999C25.2063 32.9999 25.04 32.9268 24.9261 32.7806C24.7247 32.5247 24.7685 32.1501 25.0137 31.949L32.0716 26.0182C32.3168 25.8171 32.6758 25.8537 32.8685 26.1095C33.0699 26.3654 33.0261 26.7401 32.7809 26.9412L25.723 32.872C25.6267 32.9634 25.4953 32.9999 25.3727 32.9999Z" fill="white"/>
<path d="M25.3727 7.11992C25.2063 7.11992 25.04 7.04681 24.9261 6.9006C24.7247 6.64472 24.7685 6.27004 25.0137 6.06899L32.0716 0.129006C32.3168 -0.0720395 32.6758 -0.0354871 32.8685 0.220389C33.0699 0.476266 33.0261 0.850945 32.7809 1.05199L25.723 6.99198C25.6267 7.08336 25.4953 7.11992 25.3727 7.11992Z" fill="white"/>
<path d="M0.573886 7.11992C0.407508 7.11992 0.24113 7.04681 0.127293 6.9006C-0.0741114 6.64472 -0.0303275 6.27004 0.214861 6.06899L7.27277 0.129006C7.51796 -0.0720395 7.87699 -0.0354871 8.06963 0.220389C8.26228 0.476266 8.22726 0.850945 7.98207 1.05199L0.924154 6.99198C0.82783 7.08336 0.69648 7.11992 0.573886 7.11992Z" fill="white"/>
<path d="M12.9723 7.11992C12.8059 7.11992 12.6396 7.04681 12.5257 6.9006C12.3243 6.64472 12.3681 6.27004 12.6133 6.06899L19.6712 0.129006C19.9164 -0.0720395 20.2754 -0.0354871 20.4681 0.220389C20.6695 0.476266 20.6257 0.850945 20.3805 1.05199L13.3226 6.99198C13.2263 7.08336 13.0949 7.11992 12.9723 7.11992Z" fill="white"/>
<path d="M25.3721 32.9997H0.573092C0.257851 32.9997 0.00390625 32.7347 0.00390625 32.4057V6.52564C0.00390625 6.19666 0.257851 5.93164 0.573092 5.93164H25.3721C25.6874 5.93164 25.9413 6.19666 25.9413 6.52564V32.4057C25.9413 32.7347 25.6874 32.9997 25.3721 32.9997ZM1.14228 31.8117H24.8029V7.11964H1.14228V31.8117Z" fill="white"/>
</svg>
