<svg width="45" height="45" viewBox="0 0 45 45" fill="none" xmlns="http://www.w3.org/2000/svg">
<path d="M39.742 27.151C38.437 26.61 37.083 26.544 35.876 26.915C35.503 22.565 33.894 18.582 29.338 16.306C26.95 15.111 24.041 14.488 20.487 14.179C24.769 11.488 27.621 6.71998 27.621 1.29898C27.621 0.580981 27.04 0 26.323 0C18.376 0 11.835 6.12898 11.173 13.907H1.29C-0.43 13.971 -0.43 16.44 1.29 16.505C4.783 16.505 7.007 17.234 8.504 18.865C9.984 20.48 10.823 23.109 11.052 26.87C9.88499 26.551 8.591 26.634 7.342 27.151C-1.097 31.236 2.97999 44.434 12.416 44.319C21.852 44.434 25.927 31.234 17.489 27.151C16.197 26.615 14.855 26.545 13.656 26.904C13.329 21.931 12.339 18.89 9.805 16.505H12.416C22.711 16.767 32.172 16.286 33.265 26.859C32.108 26.551 30.829 26.639 29.596 27.151C21.155 31.237 25.235 44.434 34.669 44.319C44.105 44.434 48.18 31.234 39.742 27.151ZM13.334 30.032C14.127 29.238 15.31 29.058 16.497 29.551C17.93 30.145 19.464 31.803 19.464 34.677C19.464 38.562 16.303 41.724 12.418 41.724C8.53199 41.724 5.372 38.562 5.372 34.677C5.372 31.803 6.905 30.145 8.338 29.551C9.635 29.013 10.783 29.316 11.499 30.032C12.006 30.538 12.828 30.538 13.334 30.032ZM24.952 2.67099C24.314 8.52899 19.647 13.197 13.789 13.833C14.426 7.97498 19.093 3.30799 24.952 2.67099ZM34.668 41.723C30.784 41.723 27.623 38.561 27.623 34.676C27.623 31.802 29.156 30.144 30.59 29.55C31.886 29.012 33.034 29.315 33.752 30.031C34.258 30.537 35.082 30.537 35.588 30.031C36.381 29.237 37.562 29.057 38.75 29.55C40.184 30.144 41.716 31.802 41.716 34.676C41.715 38.561 38.554 41.723 34.668 41.723Z" fill="#8FC67E"/>
</svg>
