<svg width="45" height="45" viewBox="0 0 45 45" fill="none" xmlns="http://www.w3.org/2000/svg">
<path d="M44.074 14.46C42.988 13.015 41.3189 11.917 39.1949 11.241C40.3629 9.13701 41.074 6.79101 40.771 4.66701C40.691 4.09601 40.241 3.646 39.668 3.563C37.544 3.261 35.197 3.972 33.094 5.14C32.419 3.016 31.323 1.347 29.875 0.261C29.412 -0.087 28.776 -0.087 28.313 0.261C25.019 2.736 24.4179 7.381 24.3409 9.791C21.6709 9.767 18.9919 10.77 16.9579 12.802C15.1899 14.572 10.9729 19.541 7.18195 25.35C2.41595 32.652 0 38.601 0 43.035C0 43.753 0.58195 44.334 1.29895 44.334C5.73295 44.334 11.6829 41.918 18.9839 37.152C24.7939 33.361 29.763 29.143 31.532 27.376C31.532 27.375 31.532 27.375 31.532 27.375C33.564 25.343 34.568 22.664 34.543 19.993C36.953 19.916 41.599 19.315 44.073 16.02C44.422 15.558 44.422 14.922 44.074 14.46ZM34.431 13.296C33.96 13.769 33.464 14.194 32.95 14.57C32.137 13.289 31.048 12.199 29.765 11.386C31.636 8.825 35.264 6.313 38.233 6.102C38.055 8.603 36.249 11.479 34.431 13.296ZM29.097 3.06801C30.01 4.10901 30.528 5.469 30.822 6.644C29.483 7.683 28.312 8.886 27.374 10.274C27.228 10.227 27.081 10.183 26.934 10.144C26.974 7.142 27.763 4.59901 29.097 3.06801ZM29.6949 25.539C29.2479 25.986 28.589 26.594 27.761 27.31L25.165 24.713C24.657 24.205 23.835 24.205 23.327 24.713C22.82 25.22 22.82 26.042 23.327 26.549L25.761 28.983C23.502 30.815 20.598 32.997 17.474 35.033L15.4659 33.025C14.9589 32.518 14.1369 32.518 13.6299 33.025C13.1229 33.533 13.1229 34.355 13.6299 34.863L15.218 36.451C10.908 39.06 6.38496 41.194 2.68896 41.648C2.93696 39.62 3.69195 37.343 4.75195 34.99L5.31696 35.555C5.82396 36.062 6.64599 36.062 7.15399 35.555C7.66099 35.047 7.66099 34.226 7.15399 33.718L5.95795 32.522C7.31195 29.935 8.94596 27.328 10.606 24.918L12.213 26.544C12.715 27.053 13.537 27.061 14.049 26.555C14.5599 26.051 14.565 25.229 14.061 24.718L12.131 22.766C14.733 19.197 17.203 16.286 18.56 14.881L21.224 17.544C21.731 18.051 22.553 18.051 23.06 17.544C23.567 17.037 23.567 16.215 23.06 15.707L20.634 13.281C23.561 11.731 27.256 12.203 29.694 14.64C32.7 17.644 32.6999 22.534 29.6949 25.539ZM34.192 17.403C34.151 17.256 34.108 17.108 34.062 16.963C35.458 16.019 36.658 14.846 37.691 13.515C38.859 13.807 40.223 14.325 41.267 15.24C39.737 16.573 37.193 17.362 34.192 17.403Z" fill="#8FC67E"/>
</svg>
