<svg width="45" height="45" viewBox="0 0 45 45" fill="none" xmlns="http://www.w3.org/2000/svg">
<path d="M39.464 12.479C39.442 7.415 34.867 3.516 29.814 4.376C28.187 1.687 25.289 0 22.167 0C19.045 0 16.147 1.687 14.52 4.376C9.46802 3.516 4.89202 7.415 4.86902 12.479C1.88502 14.184 0 17.383 0 20.862C0 26.897 5.52302 31.503 11.511 30.329L15.3 36.527V43.201C15.3 43.921 15.883 44.505 16.604 44.505H27.73C28.45 44.505 29.034 43.922 29.034 43.201V36.527L32.822 30.329C38.817 31.503 44.334 26.891 44.334 20.862C44.333 17.383 42.449 14.184 39.464 12.479ZM26.617 35.482C26.492 35.687 26.426 35.921 26.426 36.162V41.898H17.908V36.162C17.908 35.922 17.842 35.687 17.717 35.482L14.035 29.458C14.347 29.299 14.648 29.125 14.942 28.932C18.517 33.815 25.817 33.814 29.392 28.932C29.686 29.124 29.988 29.299 30.299 29.458L26.617 35.482ZM34.683 27.902C32.914 27.902 31.222 27.243 29.919 26.047C29.278 25.458 28.25 25.651 27.866 26.433C25.547 31.167 18.792 31.18 16.465 26.433C16.082 25.652 15.054 25.457 14.413 26.047C13.109 27.244 11.417 27.902 9.64801 27.902C5.76601 27.902 2.60703 24.744 2.60703 20.862C2.60703 18.101 4.23302 15.583 6.74802 14.444C7.26002 14.213 7.56603 13.679 7.50803 13.121C7.08303 9.025 10.979 5.927 14.811 7.122C15.439 7.318 16.114 7.016 16.387 6.416C17.438 4.102 19.707 2.607 22.167 2.607C24.627 2.607 26.896 4.102 27.947 6.416C28.219 7.016 28.895 7.318 29.522 7.122C33.365 5.922 37.25 9.038 36.826 13.121C36.768 13.679 37.073 14.212 37.585 14.444C40.101 15.584 41.727 18.102 41.727 20.862C41.725 24.745 38.567 27.902 34.683 27.902Z" fill="#8FC67E"/>
<path d="M11.039 21.645C9.84103 21.645 8.86606 20.67 8.86606 19.472C8.86606 18.752 8.28205 18.168 7.56305 18.168C6.84205 18.168 6.25903 18.752 6.25903 19.472C6.25903 22.108 8.40403 24.253 11.039 24.253C11.759 24.253 12.3441 23.67 12.3441 22.948C12.3451 22.228 11.76 21.645 11.039 21.645Z" fill="#8FC67E"/>
<path d="M36.77 18.167C36.05 18.167 35.466 18.751 35.466 19.471C35.466 20.669 34.491 21.644 33.293 21.644C32.573 21.644 31.989 22.227 31.989 22.947C31.989 23.668 32.573 24.252 33.293 24.252C35.929 24.252 38.074 22.107 38.074 19.471C38.074 18.751 37.491 18.167 36.77 18.167Z" fill="#8FC67E"/>
<path d="M27.035 9.82178C25.059 9.82178 23.297 10.7548 22.166 12.2038C21.036 10.7548 19.273 9.82178 17.298 9.82178C16.578 9.82178 15.994 10.4048 15.994 11.1258C15.994 11.8468 16.577 12.4298 17.298 12.4298C19.263 12.4298 20.862 14.0278 20.862 15.9938V16.6898C20.862 17.4098 21.446 17.9928 22.166 17.9928C22.886 17.9928 23.471 17.4098 23.471 16.6898V15.9938C23.471 14.0278 25.069 12.4298 27.035 12.4298C27.755 12.4298 28.338 11.8458 28.338 11.1258C28.338 10.4058 27.755 9.82178 27.035 9.82178Z" fill="#8FC67E"/>
</svg>
