<svg width="45" height="50" viewBox="0 0 45 50" fill="none" xmlns="http://www.w3.org/2000/svg">
<path d="M41.6126 14.279C38.6756 11.3875 34.0216 10.3219 29.8356 11.5164C29.4076 11.207 28.9546 10.9312 28.4806 10.6906C27.2106 6.78076 26.9426 4.092 26.5886 1.30528C26.4936 0.562847 25.7626 0 24.8936 0H19.4386C18.5686 0 17.8386 0.562847 17.7446 1.30528C17.3906 4.08685 17.1346 6.73779 15.8496 10.6906C15.3756 10.932 14.9236 11.2087 14.4956 11.5164C10.3096 10.3219 5.65563 11.3875 2.71763 14.279C0.623628 16.3413 -0.3294 19.0782 0.1016 21.791L3.19559 41.3006C4.00059 46.3645 9.96362 49.519 15.5566 47.9267C19.3636 50.6902 24.9646 50.692 28.7756 47.9267C34.3866 49.5242 40.3346 46.3456 41.1356 41.2998L44.2306 21.791C44.6616 19.0791 43.7066 16.3422 41.6126 14.279ZM20.9656 2.93022H23.3656C23.6436 5.12402 23.9016 6.91223 24.6196 9.54857C24.1786 9.49787 23.7286 9.47294 23.2746 9.47294C20.8966 9.47294 20.5516 9.45318 19.7116 9.54771C20.4006 7.01964 20.6706 5.24776 20.9656 2.93022ZM6.57462 40.9045L3.47764 21.3949C2.79764 17.1121 7.06062 13.4309 12.0826 14.0281C11.1866 15.4185 10.7516 16.997 10.8296 18.6323L11.9386 41.5705C12.0046 42.9531 12.4406 44.2455 13.1536 45.3858C9.8696 45.6496 7.00462 43.6139 6.57462 40.9045ZM22.1646 47.0691C18.4936 47.0691 15.4986 44.6004 15.3466 41.4476L14.2386 18.5094C14.0776 15.1804 17.1656 12.4023 21.0566 12.4023H23.2746C27.1526 12.4023 30.2566 15.1693 30.0946 18.5094L28.9856 41.4476C28.8326 44.6004 25.8366 47.0691 22.1646 47.0691ZM40.8516 21.3949L37.7566 40.9036C37.3266 43.6044 34.4726 45.6496 31.1756 45.3849C31.8896 44.2455 32.3216 42.9514 32.3896 41.5705L33.4986 18.6323C33.5786 16.997 33.1416 15.4185 32.2466 14.0281C37.2716 13.4309 41.5316 17.113 40.8516 21.3949Z" fill="#8FC67E"/>
</svg>
