<svg width="45" height="59" viewBox="0 0 45 59" fill="none" xmlns="http://www.w3.org/2000/svg">
<path d="M44.3341 34.1058C44.3341 30.8048 41.9811 28.0427 38.8651 27.4087C40.4151 23.0417 36.8421 18.1898 32.1941 18.4138C36.0851 15.4048 38.5951 10.6898 38.5951 5.40075C38.5951 4.45175 37.8271 3.68275 36.8771 3.68275C33.6291 3.68275 30.5991 4.62875 28.0461 6.25975C26.9941 4.04575 25.3501 2.03775 23.2071 0.36375C22.5861 -0.12125 21.7131 -0.12125 21.0921 0.36375C18.9481 2.03675 17.3041 4.04575 16.2531 6.25975C13.6991 4.62875 10.6701 3.68275 7.42213 3.68275C6.47213 3.68275 5.70213 4.45275 5.70213 5.40075C5.70213 10.6908 8.21413 15.4048 12.1051 18.4138C7.45713 18.1898 3.88413 23.0417 5.43413 27.4087C-1.81387 28.9917 -1.80887 39.2228 5.43413 40.8048C4.07813 44.6058 6.66912 48.9638 10.5521 49.6658C8.29112 56.7658 17.2021 61.8367 22.1491 56.3547C27.1021 61.8387 36.0061 56.7598 33.7471 49.6658C37.6291 48.9648 40.2211 44.6048 38.8651 40.8048C41.9811 40.1698 44.3341 37.4078 44.3341 34.1058ZM32.3831 21.8478C34.2561 21.8478 35.7801 23.3717 35.7801 25.2447C35.6101 29.7457 29.1551 29.7447 28.9851 25.2447C28.9851 23.3717 30.5091 21.8478 32.3831 21.8478ZM18.7521 25.2447C18.7521 23.3707 20.2771 21.8478 22.1491 21.8478C26.6511 22.0178 26.6501 28.4728 22.1491 28.6428C20.2761 28.6428 18.7521 27.1177 18.7521 25.2447ZM20.4311 34.1058C20.4311 35.9788 18.9071 37.5028 17.0331 37.5028C12.5321 37.3328 12.5331 30.8778 17.0331 30.7078C18.9061 30.7088 20.4311 32.2328 20.4311 34.1058ZM27.2651 30.7088C29.1401 30.7088 30.6631 32.2328 30.6631 34.1058C30.4921 38.6078 24.0381 38.6058 23.8671 34.1058C23.8681 32.2328 25.3931 30.7088 27.2651 30.7088ZM35.0271 7.24975C34.2121 12.9468 29.6941 17.4638 23.9991 18.2778C24.8141 12.5828 29.3311 8.06475 35.0271 7.24975ZM22.1491 3.97876C23.5751 5.31776 24.6311 6.85075 25.2651 8.49275C24.0061 9.74875 22.9511 11.2078 22.1491 12.8148C21.3481 11.2078 20.2931 9.74875 19.0331 8.49275C19.6671 6.84975 20.7241 5.31676 22.1491 3.97876ZM9.27212 7.24975C14.9671 8.06375 19.4861 12.5828 20.2991 18.2778C14.6041 17.4638 10.0871 12.9468 9.27212 7.24975ZM11.9171 21.8478C13.7911 21.8478 15.3141 23.3717 15.3141 25.2447C15.1431 29.7457 8.68913 29.7447 8.51913 25.2447C8.51913 23.3717 10.0431 21.8478 11.9171 21.8478ZM6.80012 37.5037C4.92612 37.5037 3.40313 35.9797 3.40313 34.1067C3.57313 29.6047 10.0271 29.6067 10.1981 34.1067C10.1981 35.9787 8.67312 37.5037 6.80012 37.5037ZM11.9171 46.3657C10.0431 46.3657 8.51913 44.8417 8.51913 42.9687C8.69013 38.4677 15.1441 38.4677 15.3141 42.9687C15.3141 44.8417 13.7901 46.3657 11.9171 46.3657ZM17.0321 55.2277C15.1591 55.2277 13.6351 53.7037 13.6351 51.8307C13.8071 47.3287 20.2611 47.3307 20.4311 51.8307C20.4311 53.7027 18.9061 55.2277 17.0321 55.2277ZM22.1491 46.3657C20.2761 46.3657 18.7521 44.8417 18.7521 42.9687C18.9221 38.4667 25.3781 38.4687 25.5481 42.9687C25.5471 44.8417 24.0231 46.3657 22.1491 46.3657ZM27.2651 55.2277C25.3921 55.2277 23.8681 53.7037 23.8681 51.8307C24.0381 47.3297 30.4931 47.3297 30.6641 51.8307C30.6641 53.7027 29.1401 55.2277 27.2651 55.2277ZM32.3831 46.3657C30.5091 46.3657 28.9861 44.8417 28.9861 42.9687C29.1561 38.4667 35.6111 38.4687 35.7811 42.9687C35.7801 44.8417 34.2561 46.3657 32.3831 46.3657ZM37.4991 37.5037C35.6251 37.5037 34.1011 35.9797 34.1011 34.1067C34.2721 29.6057 40.7261 29.6057 40.8961 34.1067C40.8961 35.9787 39.3721 37.5037 37.4991 37.5037Z" fill="#8FC67E"/>
</svg>
