<svg width="45" height="51" viewBox="0 0 45 51" fill="none" xmlns="http://www.w3.org/2000/svg">
<path d="M37.2372 16.414C35.6832 15.761 33.8852 15.269 31.7442 14.928C33.3322 13.44 35.4882 11.577 37.1182 10.763C37.5632 10.54 37.8672 10.11 37.9282 9.617C37.9892 9.123 37.7982 8.63101 37.4212 8.30801C37.3552 8.25001 35.7652 6.90301 33.5022 6.22401C31.2142 5.53801 29.0512 5.74201 27.1352 6.80601C25.8672 1.82901 23.1612 0.33 22.8152 0.156C22.3972 -0.052 21.9062 -0.052 21.4872 0.156C21.1402 0.33 18.4262 1.82901 17.1592 6.80601C15.2422 5.74201 13.0792 5.53801 10.7922 6.22401C8.52916 6.90301 6.93916 8.25001 6.87416 8.30801C6.49616 8.63101 6.30515 9.123 6.36615 9.617C6.42615 10.11 6.73017 10.541 7.17617 10.763C8.80616 11.577 10.9622 13.44 12.5512 14.928C-3.83784 17.118 -2.55984 31.961 7.13816 42.637C16.7722 53.232 27.5322 53.234 37.1662 42.636C44.6252 34.54 48.5772 21.367 37.2372 16.414ZM10.6392 9.447C10.9702 9.297 11.3342 9.15701 11.7222 9.04501C13.7922 8.44901 15.5592 8.92101 17.1222 10.485C17.5242 10.886 18.1182 11.023 18.6542 10.839C19.1902 10.654 19.5752 10.181 19.6462 9.61801C20.0982 6.00101 21.3482 4.185 22.1442 3.369C22.9392 4.184 24.1902 6.00001 24.6422 9.61801C24.7132 10.181 25.0982 10.654 25.6342 10.839C26.1702 11.023 26.7642 10.886 27.1662 10.485C28.7292 8.92101 30.4972 8.44901 32.5672 9.04501C32.9552 9.15701 33.3192 9.296 33.6502 9.447C31.3372 11.128 28.9392 13.47 27.9232 14.498C24.5722 14.249 19.7152 14.249 16.3652 14.498C15.3502 13.471 12.9522 11.127 10.6392 9.447ZM34.9662 40.638C30.9422 45.065 26.1522 47.707 22.1502 47.707C13.6712 47.948 2.69916 35.196 2.96216 26.928C2.96216 23.132 4.63116 20.661 8.21616 19.153C13.2182 16.64 31.0842 16.64 36.0862 19.153C45.3452 23.115 40.8252 34.127 34.9662 40.638Z" fill="#8FC67E"/>
<path d="M15.7882 20.6731C14.9692 20.6731 14.3032 21.3371 14.3032 22.1571V23.7471C14.3772 25.7151 17.2002 25.7131 17.2732 23.7471V22.1571C17.2732 21.3371 16.6092 20.6731 15.7882 20.6731Z" fill="#8FC67E"/>
<path d="M15.7882 33.395C14.9692 33.395 14.3032 34.06 14.3032 34.879V36.47C14.3772 38.438 17.2002 38.436 17.2732 36.47V34.879C17.2732 34.06 16.6092 33.395 15.7882 33.395Z" fill="#8FC67E"/>
<path d="M28.5101 20.6731C27.6911 20.6731 27.0251 21.3371 27.0251 22.1571V23.7471C27.0991 25.7151 29.9231 25.7131 29.9961 23.7471V22.1571C29.9951 21.3371 29.3301 20.6731 28.5101 20.6731Z" fill="#8FC67E"/>
<path d="M28.5101 33.395C27.6911 33.395 27.0251 34.06 27.0251 34.879V36.47C27.0991 38.438 29.9231 38.436 29.9961 36.47V34.879C29.9951 34.06 29.3301 33.395 28.5101 33.395Z" fill="#8FC67E"/>
<path d="M22.1491 27.033C21.3291 27.033 20.6641 27.698 20.6641 28.517V30.108C20.7371 32.076 23.5621 32.074 23.6341 30.108V28.517C23.6341 27.698 22.9701 27.033 22.1491 27.033Z" fill="#8FC67E"/>
<path d="M34.8712 27.033C34.0512 27.033 33.3862 27.698 33.3862 28.517V30.108C33.4592 32.076 36.2842 32.074 36.3572 30.108V28.517C36.3572 27.698 35.6922 27.033 34.8712 27.033Z" fill="#8FC67E"/>
<path d="M9.42812 27.033C8.60812 27.033 7.94312 27.698 7.94312 28.517V30.108C8.01612 32.076 10.8391 32.074 10.9121 30.108V28.517C10.9121 27.698 10.2471 27.033 9.42812 27.033Z" fill="#8FC67E"/>
<path d="M22.1491 39.7561C21.3291 39.7561 20.6641 40.4211 20.6641 41.2401V42.8311C20.7371 44.7991 23.5621 44.7971 23.6341 42.8311V41.2401C23.6341 40.4211 22.9701 39.7561 22.1491 39.7561Z" fill="#8FC67E"/>
</svg>
