<svg width="45" height="45" viewBox="0 0 45 45" fill="none" xmlns="http://www.w3.org/2000/svg">
<path d="M28.401 0C20.743 0 14.258 5.429 12.781 12.783C5.50001 14.248 0 20.695 0 28.401C0 37.186 7.14601 44.333 15.932 44.333C23.639 44.333 30.085 38.833 31.55 31.552C38.911 30.073 44.333 23.584 44.333 15.932C44.333 7.148 37.185 0 28.401 0ZM36.913 5.676C34.719 6.726 33.148 8.791 32.744 11.225C31.857 11.111 30.955 11.17 30.082 11.405C28.909 7.63 24.775 5.636 21.095 7.053C20.762 6.541 20.355 6.079 19.887 5.686C24.842 1.572 31.971 1.569 36.913 5.676ZM18.049 7.541C18.617 7.965 19.053 8.554 19.287 9.228C19.563 10.027 20.519 10.353 21.228 9.889C23.683 8.275 27.101 9.607 27.706 12.579C26.652 13.389 25.888 14.446 25.448 15.631C22.6 13.503 19.134 12.382 15.519 12.474C16.012 10.639 16.888 8.967 18.049 7.541ZM24.987 18.623C23.231 19.769 22.014 21.614 21.664 23.695C19.597 23.429 17.579 24.117 16.118 25.476C14.151 23.856 11.539 23.517 9.32001 24.371C8.26301 22.737 6.47101 21.676 4.48401 21.571C8.83401 14.306 18.752 12.845 24.987 18.623ZM2.59601 28.401C2.59601 26.918 2.841 25.491 3.289 24.158H4.15399C5.66799 24.158 7.01601 25.118 7.51001 26.546C7.78701 27.345 8.74299 27.671 9.45099 27.206C10.139 26.754 10.943 26.514 11.774 26.514C14.446 26.514 16.466 28.97 15.931 31.607C15.764 32.431 16.412 33.186 17.234 33.163C19.951 33.105 22.251 35.324 22.251 38.099C22.251 38.919 22.048 39.724 21.662 40.44C19.925 41.27 17.98 41.736 15.93 41.736C8.57899 41.735 2.59601 35.754 2.59601 28.401ZM24.846 38.309C24.952 34.528 22.24 31.31 18.616 30.678C18.602 29.522 18.301 28.434 17.78 27.482C18.994 26.269 20.815 25.907 22.381 26.548C23.274 26.914 24.236 26.213 24.169 25.255C24.034 23.371 25.043 21.522 26.739 20.6C30.706 26.078 29.953 33.709 24.846 38.309ZM31.859 28.812C31.966 24.616 30.433 20.636 27.64 17.608C27.909 14.713 30.894 13.027 33.464 14.079C34.351 14.442 35.318 13.748 35.251 12.785C35.087 10.489 36.589 8.319 38.886 7.703C40.67 9.971 41.735 12.829 41.735 15.932C41.735 22 37.589 27.274 31.859 28.812Z" fill="#8FC67E"/>
</svg>
