<svg width="45" height="45" viewBox="0 0 45 45" fill="none" xmlns="http://www.w3.org/2000/svg">
<path d="M43.0346 29.873H38.3256C39.6766 23.615 37.3626 17.219 32.3096 12.995C32.7106 12.849 33.0256 12.51 33.1286 12.075C33.2666 11.488 32.9826 10.884 32.4436 10.614L23.3696 6.077L22.7626 1.13899C22.6816 0.487992 22.1286 0 21.4736 0H17.3166C16.6606 0 16.1076 0.487992 16.0276 1.13899L15.4206 6.077L6.34661 10.614C5.34361 11.115 5.40564 12.575 6.45464 12.985C-1.77236 19.806 -2.26835 31.684 5.73565 39.076C11.2966 44.211 19.2306 45.549 25.9826 43.251C30.6996 45.312 36.4626 44.457 40.4596 40.46C42.9586 37.963 44.3336 34.665 44.3336 31.172C44.3336 30.455 43.7516 29.873 43.0346 29.873ZM36.6466 32.471C36.0576 34.95 33.8276 36.801 31.1706 36.801C28.5156 36.801 26.2836 34.95 25.6956 32.471H36.6466ZM17.2066 8.08899C17.5946 7.89399 17.8606 7.517 17.9146 7.086L18.4666 2.59799H20.3246L20.8776 7.086C20.9306 7.517 21.1966 7.89399 21.5856 8.08899L26.3626 10.478H24.2446C23.2516 10.478 22.6216 11.553 23.1166 12.421L23.8926 13.779L19.9326 11.978C19.5916 11.823 19.1996 11.823 18.8576 11.978L14.8976 13.779L15.6736 12.421C16.1666 11.559 15.5446 10.478 14.5466 10.478H12.4286L17.2066 8.08899ZM2.59661 26.323C2.59661 20.876 5.79861 15.826 10.9716 13.075H12.3076L10.6476 15.98C10.3686 16.469 10.4356 17.083 10.8156 17.5C11.1956 17.916 11.7986 18.041 12.3136 17.808L19.3956 14.588L26.4776 17.808C26.9926 18.041 27.5956 17.916 27.9746 17.5C28.3546 17.083 28.4216 16.47 28.1426 15.98L26.4816 13.075H27.7976C34.1166 16.455 37.3636 23.247 35.6556 29.873H19.3946C18.6756 29.873 18.0946 30.455 18.0946 31.172C18.0946 35.29 19.9846 38.972 22.9346 41.386C12.5446 43.469 2.59661 36.154 2.59661 26.323ZM31.1716 41.735C25.8306 41.735 21.4096 37.684 20.7736 32.47H23.0496C23.6736 36.391 27.0776 39.398 31.1716 39.398C35.2666 39.398 38.6706 36.391 39.2946 32.47H41.6556C41.0126 37.684 36.5556 41.735 31.1716 41.735Z" fill="#8FC67E"/>
</svg>
