<svg width="45" height="45" viewBox="0 0 45 45" fill="none" xmlns="http://www.w3.org/2000/svg">
<path d="M43.032 20.867H42.803C42.84 20.377 42.86 19.885 42.86 19.395C42.86 16.214 40.866 13.399 37.91 12.318C38.815 6.839 33.644 2.252 28.289 3.874C27.101 1.471 24.702 0 22.165 0C19.63 0 17.229 1.471 16.04 3.874C10.681 2.252 5.51702 6.844 6.42102 12.318C3.45702 13.401 1.46997 16.222 1.46997 19.395C1.46997 19.885 1.49102 20.377 1.52802 20.867H1.29901C0.581011 20.867 0 21.449 0 22.166V24.416C0 32.294 6.40901 38.704 14.286 38.704H16.3L17.442 43.343C17.586 43.924 18.105 44.331 18.704 44.331H25.631C26.229 44.331 26.749 43.923 26.892 43.343L28.035 38.704H30.048C37.925 38.704 44.335 32.294 44.335 24.416V22.166C44.331 21.449 43.749 20.867 43.032 20.867ZM4.06799 19.395C4.06799 16.94 5.86302 14.903 8.21002 14.523C9.01802 14.392 9.50401 13.557 9.22101 12.791C8.06501 9.666 10.303 6.259 13.688 6.15C14.559 6.122 15.417 6.321 16.175 6.727C16.921 7.125 17.844 6.716 18.049 5.894C18.524 3.984 20.255 2.597 22.165 2.597C24.075 2.597 25.806 3.985 26.282 5.894C26.487 6.717 27.41 7.124 28.155 6.727C28.913 6.321 29.774 6.121 30.642 6.15C34.029 6.259 36.264 9.665 35.109 12.791C34.825 13.558 35.313 14.393 36.121 14.523C38.52 14.911 40.262 16.96 40.262 19.395C40.262 19.886 40.239 20.378 40.196 20.867H35.154C29.398 20.867 24.426 24.289 22.166 29.205C19.905 24.288 14.935 20.867 9.17798 20.867H4.13397C4.08897 20.378 4.06799 19.886 4.06799 19.395ZM2.59601 24.417V23.465H9.17603C15.05 23.465 19.925 27.819 20.743 33.469C17.706 30.108 13.736 27.652 9.34497 26.455C8.65297 26.266 7.939 26.674 7.75 27.366C7.561 28.058 7.97001 28.772 8.66101 28.96C12.954 30.131 16.794 32.652 19.58 36.106H14.284C7.84 36.107 2.59601 30.863 2.59601 24.417ZM24.61 41.735H19.719L18.974 38.705H25.357L24.61 41.735ZM41.733 24.417C41.733 30.863 36.49 36.107 30.045 36.107H24.749C27.536 32.652 31.376 30.131 35.668 28.961C36.359 28.773 36.769 28.059 36.58 27.367C36.391 26.675 35.677 26.267 34.984 26.456C30.593 27.653 26.623 30.109 23.586 33.471C24.404 27.82 29.279 23.467 35.153 23.467H41.733V24.417Z" fill="#8FC67E"/>
<path d="M13.853 15.1521C14.57 15.1521 15.1509 14.5711 15.1509 13.8541C15.1509 12.6601 16.1229 11.6891 17.3159 11.6891C18.0329 11.6891 18.6149 11.1081 18.6149 10.3901C18.6149 9.67306 18.0329 9.09106 17.3159 9.09106C14.6899 9.09106 12.554 11.2281 12.554 13.8541C12.554 14.5711 13.135 15.1521 13.853 15.1521Z" fill="#8FC67E"/>
<path d="M27.014 11.6891C28.208 11.6891 29.178 12.6601 29.178 13.8541C29.178 14.5711 29.76 15.1521 30.478 15.1521C31.195 15.1521 31.775 14.5711 31.775 13.8541C31.775 11.2281 29.64 9.09106 27.014 9.09106C26.296 9.09106 25.714 9.67306 25.714 10.3901C25.714 11.1081 26.296 11.6891 27.014 11.6891Z" fill="#8FC67E"/>
<path d="M18.614 20.4339C19.188 20.8659 20.002 20.7489 20.432 20.1759C21.301 19.0199 23.028 19.0189 23.897 20.1759C24.152 20.5149 24.543 20.6939 24.937 20.6939C25.988 20.6939 26.625 19.4819 25.974 18.6149C25.078 17.4219 23.655 16.7109 22.164 16.7109C20.673 16.7109 19.251 17.4219 18.354 18.6149C17.924 19.1889 18.04 20.0039 18.614 20.4339Z" fill="#8FC67E"/>
</svg>
