<svg width="45" height="62" viewBox="0 0 45 62" fill="none" xmlns="http://www.w3.org/2000/svg">
<path d="M44.3329 39.641C44.3329 36.662 43.0329 33.848 40.8079 31.912C41.2769 25.781 36.0149 20.519 29.8849 20.987C29.5459 20.596 29.1789 20.235 28.7889 19.903C36.1529 17.192 41.4179 10.106 41.4179 1.812C41.4179 0.811998 40.6069 0 39.6069 0C31.8929 0 25.2249 4.557 22.1479 11.121C19.0719 4.557 12.4029 0 4.68887 0C3.68887 0 2.87788 0.810998 2.87788 1.812C2.87788 10.108 8.14686 17.197 15.5159 19.905C15.1259 20.237 14.7609 20.597 14.4229 20.987C8.29287 20.519 3.02988 25.78 3.49888 31.909C-1.16612 35.821 -1.16613 43.459 3.49787 47.37C3.03587 53.496 8.28989 58.751 14.4159 58.287C18.3289 62.961 25.9789 62.96 29.8899 58.287C36.0159 58.75 41.2709 53.495 40.8089 47.369C43.0329 45.435 44.3329 42.62 44.3329 39.641ZM30.5869 24.585C38.4079 24.769 39.6619 35.606 32.1999 37.631C31.3969 33.588 28.2079 30.394 24.1669 29.585C24.8929 26.716 27.4959 24.585 30.5869 24.585ZM28.7739 39.631C28.7739 43.283 25.8029 46.253 22.1509 46.253C13.3759 45.92 13.3779 33.339 22.1509 33.007C25.8039 33.008 28.7739 35.978 28.7739 39.631ZM37.6779 3.743C36.8029 10.831 31.1689 16.468 24.0789 17.343C24.9539 10.253 30.5889 4.618 37.6779 3.743ZM22.1529 21.083C23.4539 21.083 24.7079 21.468 25.7699 22.161C24.3129 22.935 23.0759 24.047 22.1529 25.384C21.2309 24.047 19.9949 22.935 18.5369 22.161C19.5999 21.467 20.8519 21.083 22.1529 21.083ZM6.61886 3.743C13.7089 4.618 19.3449 10.253 20.2189 17.343C13.1309 16.467 7.49486 10.831 6.61886 3.743ZM13.7199 24.585C16.8109 24.585 19.4149 26.716 20.1399 29.585C16.0979 30.392 12.9069 33.586 12.1029 37.631C4.64187 35.596 5.90887 24.766 13.7199 24.585ZM4.67287 43.258C3.24687 41.151 3.24687 38.133 4.67287 36.025C5.44687 37.481 6.55887 38.717 7.89587 39.641C6.55987 40.565 5.44787 41.801 4.67287 43.258ZM13.7199 54.689C5.90087 54.506 4.64686 43.672 12.1059 41.644C12.9139 45.683 16.1039 48.871 20.1439 49.677C19.4229 52.552 16.8169 54.689 13.7199 54.689ZM22.1529 58.199C20.8519 58.199 19.5989 57.815 18.5369 57.122C19.9949 56.347 21.2299 55.236 22.1529 53.898C23.0759 55.236 24.3129 56.347 25.7699 57.122C24.7079 57.815 23.4549 58.199 22.1529 58.199ZM30.5869 54.689C27.4899 54.689 24.8839 52.552 24.1629 49.676C28.2009 48.869 31.3899 45.68 32.1969 41.643C39.6669 43.67 38.4039 54.508 30.5869 54.689ZM39.6339 43.258C38.8599 41.801 37.7479 40.565 36.4099 39.641C37.7479 38.717 38.8599 37.481 39.6339 36.025C41.0599 38.133 41.0599 41.151 39.6339 43.258Z" fill="#8FC67E"/>
</svg>
