<svg width="44" height="18" viewBox="0 0 44 18" fill="none" xmlns="http://www.w3.org/2000/svg">
<path d="M21.8283 17.6204H12.2072C11.9313 17.6204 11.7073 17.3966 11.7073 17.1209V5.8362C11.7073 5.71282 11.753 5.59394 11.8355 5.50228L16.6453 0.158029C16.8348 -0.0525138 17.199 -0.0527577 17.3887 0.157785L22.2 5.50204C22.2828 5.5937 22.3283 5.71282 22.3283 5.8362V17.1209C22.3283 17.3969 22.1043 17.6204 21.8283 17.6204ZM12.7072 16.6214H21.3284V6.02801L17.017 1.23897L12.7072 6.02777V16.6214Z" fill="white"/>
<path d="M9.78883 17.6203H0.499953C0.223979 17.6203 0 17.3965 0 17.1208V9.12939C0 8.85366 0.223979 8.62988 0.499953 8.62988H9.78883C10.0648 8.62988 10.2888 8.85366 10.2888 9.12939V17.1208C10.2888 17.3968 10.0648 17.6203 9.78883 17.6203ZM0.999906 16.6213H9.28888V9.6289H0.999906V16.6213Z" fill="white"/>
<path d="M34.9292 17.6203H24.0188C23.7428 17.6203 23.5188 17.3965 23.5188 17.1208V9.12939C23.5188 8.85366 23.7428 8.62988 24.0188 8.62988H34.9292C35.2052 8.62988 35.4292 8.85366 35.4292 9.12939V17.1208C35.4292 17.3968 35.2054 17.6203 34.9292 17.6203ZM24.5187 16.6213H34.4293V9.6289H24.5187V16.6213Z" fill="white"/>
<path d="M42.5537 17.6201H39.5312C39.2552 17.6201 39.0312 17.3964 39.0312 17.1206V6.37793C39.0312 6.1022 39.2552 5.87842 39.5312 5.87842H42.5537C42.8296 5.87842 43.0536 6.1022 43.0536 6.37793V17.1206C43.0536 17.3966 42.8299 17.6201 42.5537 17.6201ZM40.0312 16.6211H42.0537V6.87744H40.0312V16.6211Z" fill="white"/>
<path d="M42.5273 12.1523H35.2785C35.0025 12.1523 34.7786 11.9286 34.7786 11.6528C34.7786 11.3771 35.0025 11.1533 35.2785 11.1533H42.5273C42.8033 11.1533 43.0273 11.3771 43.0273 11.6528C43.0273 11.9286 42.8033 12.1523 42.5273 12.1523Z" fill="white"/>
</svg>
