<svg width="215" height="100" viewBox="0 0 215 100" fill="none" xmlns="http://www.w3.org/2000/svg">
<path d="M103.884 90.5294H55.9623C54.6659 90.5294 53.6156 89.4792 53.6156 88.1829V31.9286C53.6156 31.3505 53.8297 30.7923 54.2178 30.3602L78.1738 3.71751C79.064 2.72926 80.7745 2.72926 81.6647 3.71751L105.629 30.3602C106.015 30.7923 106.231 31.3505 106.231 31.9286V88.1829C106.231 89.4792 105.181 90.5294 103.884 90.5294ZM58.3109 85.8383H101.538V32.8309L79.9183 8.79679L58.3088 32.8309V85.8383H58.3109Z" fill="#6AB354"/>
<path d="M74.409 56.6588H64.7726C63.4762 56.6588 62.424 55.6086 62.424 54.3122V38.8903C62.424 37.596 63.4742 36.5437 64.7726 36.5437H74.409C75.7034 36.5437 76.7556 37.594 76.7556 38.8903V54.3122C76.7556 55.6066 75.7034 56.6588 74.409 56.6588ZM67.1172 51.9656H72.0624V41.2369H67.1172V51.9656Z" fill="#6AB354"/>
<path d="M95.046 56.6588H85.4116C84.1173 56.6588 83.0649 55.6086 83.0649 54.3122V38.8903C83.0649 37.596 84.1153 36.5437 85.4116 36.5437H95.046C96.3403 36.5437 97.3925 37.594 97.3925 38.8903V54.3122C97.3925 55.6066 96.3423 56.6588 95.046 56.6588ZM87.7581 51.9656H92.7014V41.2369H87.7581V51.9656Z" fill="#6AB354"/>
<path d="M111.222 90.529C109.928 90.529 108.876 89.4788 108.876 88.1824V28.5133C108.876 27.219 109.926 26.1667 111.222 26.1667C112.519 26.1667 113.569 27.217 113.569 28.5133V88.1824C113.569 89.4788 112.519 90.529 111.222 90.529Z" fill="#6AB354"/>
<path d="M111.224 30.86C110.57 30.86 109.92 30.5879 109.453 30.0578L86.5836 3.8912C85.7314 2.91495 85.8314 1.43256 86.8056 0.578346C87.7819 -0.27387 89.2643 -0.171845 90.1185 0.802402L112.988 26.9691C113.84 27.9453 113.742 29.4277 112.766 30.2799C112.322 30.67 111.772 30.86 111.224 30.86Z" fill="#6AB354"/>
<path d="M48.6124 90.529H2.34874C1.05241 90.529 0.0020752 89.4788 0.0020752 88.1825V48.3444C0.0020752 47.0501 1.05241 45.9978 2.34874 45.9978H48.6124C49.9087 45.9978 50.9589 47.0481 50.9589 48.3444V88.1825C50.9589 89.4788 49.9087 90.529 48.6124 90.529ZM4.69333 85.8378H46.2659V50.693H4.69333V85.8378Z" fill="#6AB354"/>
<path d="M173.83 90.529H119.488C118.194 90.529 117.141 89.4788 117.141 88.1825V48.3444C117.141 47.0501 118.192 45.9978 119.488 45.9978H173.83C175.126 45.9978 176.178 47.0481 176.178 48.3444V88.1825C176.178 89.4788 175.128 90.529 173.83 90.529ZM121.835 85.8378H171.483V50.693H121.835V85.8378Z" fill="#6AB354"/>
<path d="M10.7989 43.9396C9.50261 43.9396 8.45227 42.8894 8.45227 41.593V21.1698C8.45227 19.8755 9.50261 18.8232 10.7989 18.8232C12.0953 18.8232 13.1455 19.8735 13.1455 21.1698V41.593C13.1455 42.8894 12.0953 43.9396 10.7989 43.9396Z" fill="#6AB354"/>
<path d="M54.7941 23.5164H10.7989C9.50261 23.5164 8.45227 22.4662 8.45227 21.1698C8.45227 19.8735 9.50261 18.8232 10.7989 18.8232H54.7941C56.0904 18.8232 57.1406 19.8735 57.1406 21.1698C57.1406 22.4662 56.0904 23.5164 54.7941 23.5164Z" fill="#6AB354"/>
<path d="M196.75 90.5294H182.438C181.144 90.5294 180.092 89.4791 180.092 88.1828V26.5512C180.092 25.2569 181.142 24.2046 182.438 24.2046H196.75C198.044 24.2046 199.097 25.2549 199.097 26.5512V88.1828C199.097 89.4791 198.046 90.5294 196.75 90.5294ZM184.785 85.8382H194.405V28.8998H184.785V85.8382Z" fill="#6AB354"/>
<path d="M211.804 90.5297H196.752C195.457 90.5297 194.405 89.4795 194.405 88.1832V34.6296C194.405 33.3352 195.455 32.283 196.752 32.283H211.804C213.098 32.283 214.15 33.3332 214.15 34.6296V88.1832C214.15 89.4795 213.098 90.5297 211.804 90.5297ZM199.096 85.8385H209.457V36.9782H199.096V85.8385Z" fill="#6AB354"/>
<path d="M211.673 43.9395H119.488C118.194 43.9395 117.141 42.8893 117.141 41.5929C117.141 40.2966 118.192 39.2463 119.488 39.2463H211.673C212.968 39.2463 214.02 40.2966 214.02 41.5929C214.02 42.8893 212.97 43.9395 211.673 43.9395Z" fill="#6AB354"/>
<path d="M211.673 63.2685H175.568C174.274 63.2685 173.222 62.2182 173.222 60.9219C173.222 59.6255 174.272 58.5732 175.568 58.5732H211.673C212.968 58.5732 214.02 59.6235 214.02 60.9219C214.02 62.2182 212.97 63.2685 211.673 63.2685Z" fill="#6AB354"/>
<path d="M143.403 59.8196H125.778V64.2247H143.403V59.8196Z" fill="#6AB354"/>
<path d="M167.547 59.8196H149.916V64.2247H167.547V59.8196Z" fill="#6AB354"/>
<path d="M48.6126 70.0598H13.5477C12.6195 70.0598 11.7793 69.5137 11.4033 68.6635C11.0272 67.8153 11.1872 66.823 11.8113 66.1368L18.9732 58.2429C19.4173 57.7527 20.0494 57.4727 20.7115 57.4727H48.6167C49.913 57.4727 50.9632 58.5229 50.9632 59.8193V67.7132C50.9592 69.0096 49.909 70.0598 48.6126 70.0598ZM18.8451 65.3647H46.268V62.1638H21.7499L18.8451 65.3647Z" fill="#6AB354"/>
<path d="M20.5213 90.5297C19.225 90.5297 18.1746 89.4795 18.1746 88.1831V68.2641C18.1746 66.9698 19.225 65.9175 20.5213 65.9175C21.8176 65.9175 22.8678 66.9678 22.8678 68.2641V88.1831C22.8678 89.4795 21.8176 90.5297 20.5213 90.5297Z" fill="#6AB354"/>
<path d="M210.253 99.9116H2.34654C1.05021 99.9116 0 98.8614 0 97.5651C0 96.2688 1.05021 95.2185 2.34654 95.2185H210.253C211.549 95.2185 212.602 96.2688 212.602 97.5651C212.602 98.8614 211.551 99.9116 210.253 99.9116Z" fill="#6AB354"/>
</svg>
