<svg width="42" height="19" viewBox="0 0 42 19" fill="none" xmlns="http://www.w3.org/2000/svg">
<path d="M29.5179 18.6894H17.1243C16.8508 18.6894 16.6281 18.4698 16.6243 18.1964L16.6078 16.9331L5.22864 16.5417C4.97841 16.533 4.77318 16.3409 4.74844 16.0919L4.5607 14.2095L1.27051 14.2807C1.00929 14.2875 0.787307 14.0899 0.76206 13.8299L0.00238062 6.06828C-0.0113681 5.92792 0.0348782 5.7883 0.129619 5.6839C0.22436 5.57951 0.358848 5.52006 0.499835 5.52006H8.06612C8.29785 5.52006 8.49908 5.67916 8.55258 5.90444L8.86105 7.2064L11.566 6.63247L9.56698 4.95986C9.3845 4.80726 9.335 4.54677 9.44899 4.33798L10.8911 1.69457C11.0126 1.47179 11.2818 1.37589 11.517 1.47054L13.2629 2.1741L14.839 0.189051C14.9745 0.0184682 15.205 -0.0447215 15.4087 0.0327025L20.7457 2.06446L20.9584 1.14611C20.9929 0.997756 21.0931 0.873126 21.2306 0.80769C21.3684 0.742255 21.5284 0.743256 21.6653 0.81019L23.9761 1.94058H30.5855C30.7402 1.94058 30.8865 2.01226 30.9812 2.13464C31.0757 2.25702 31.1085 2.41636 31.0695 2.56597L29.9133 7.00185H40.5623C40.7278 7.00185 40.8825 7.08377 40.9758 7.22039C41.0688 7.35701 41.0883 7.53109 41.0275 7.68494L38.577 13.8841C38.4768 14.1371 38.1918 14.2637 37.9366 14.1683L36.0737 13.471L34.4039 16.6808C34.3042 16.8734 34.0922 16.9798 33.8772 16.9431L29.4491 16.1976L29.9973 18.0485C30.0421 18.1996 30.0128 18.3629 29.9186 18.4891C29.8238 18.6149 29.6753 18.6894 29.5179 18.6894ZM17.6177 17.6904H28.8484L28.2627 15.7136C28.2137 15.5485 28.2535 15.3696 28.368 15.2405C28.4824 15.1116 28.6544 15.0507 28.8254 15.0792L33.6845 15.8974L35.3908 12.6176C35.5073 12.3933 35.773 12.2919 36.0097 12.3801L37.8273 13.0604L39.8274 8.00062H29.2664C29.1116 8.00062 28.9654 7.92895 28.8707 7.80657C28.7762 7.68419 28.7434 7.52485 28.7824 7.37524L29.9386 2.93935H23.8601C23.7839 2.93935 23.7089 2.92186 23.6404 2.8884L21.7906 1.98354L21.5906 2.84769C21.5581 2.9883 21.4661 3.10793 21.3386 3.17586C21.2111 3.24355 21.0606 3.25304 20.9257 3.20184L15.3949 1.09641L13.8141 3.08746C13.6763 3.26079 13.4406 3.32297 13.2354 3.24005L11.556 2.56322L10.5231 4.45685L12.9954 6.52507C13.1419 6.6477 13.2056 6.84327 13.1596 7.02858C13.1134 7.21415 12.9654 7.35676 12.7784 7.39672L8.59132 8.28535C8.3251 8.34129 8.06362 8.17596 8.00088 7.91172L7.67091 6.51933H1.05128L1.71222 13.2722L5.00141 13.201C5.26839 13.1865 5.48386 13.3913 5.50986 13.6508L5.70009 15.5585L17.1188 15.9511C17.3855 15.9603 17.598 16.1771 17.6015 16.4438L17.6177 17.6904Z" fill="white"/>
</svg>
