<svg width="57" height="57" viewBox="0 0 57 57" fill="none" xmlns="http://www.w3.org/2000/svg">
<path d="M28.2667 56.5427C43.878 56.5427 56.5334 43.8852 56.5334 28.2713C56.5334 12.6575 43.878 0 28.2667 0C12.6554 0 0 12.6575 0 28.2713C0 43.8852 12.6554 56.5427 28.2667 56.5427Z" fill="#6AB354"/>
<path fill-rule="evenodd" clip-rule="evenodd" d="M17.9115 13C18.4231 13 18.9334 13 19.4437 13C22.5774 13.1361 25.6654 14.0954 28.8254 14.1037C31.9703 14.1134 35.0319 13.1305 38.1434 13C38.6759 13 39.2069 13 39.738 13C41.2106 13.1124 41.0761 15.2518 41.1482 17.051C41.4186 23.7509 41.639 30.2398 41.639 37.4312C41.639 40.0009 41.7735 44.0838 39.616 44.4295C39.1057 44.4295 38.594 44.4295 38.0824 44.4295C34.9819 44.3018 31.9397 43.3314 28.8254 43.3244C25.7083 43.3175 22.6661 44.3115 19.5671 44.4295C19.0554 44.4295 18.5451 44.4295 18.0349 44.4295C17.4386 44.2588 17.0365 44.0269 16.7453 43.5702C15.8551 42.1624 16.0104 38.8389 16.0104 36.4496C16.0104 29.715 16.2267 23.4399 16.5013 17.1732C16.5887 15.1754 16.3793 13.236 17.9115 13ZM17.9725 14.2272C17.6175 14.7159 17.6494 16.6248 17.605 17.7257C17.4525 21.5422 17.2916 25.1004 17.1752 28.7765C17.0615 32.4208 16.9977 36.4469 17.2362 40.0092C17.3166 41.1892 17.3665 42.8732 17.9115 43.2022C18.4509 43.5271 19.696 43.2342 20.6084 43.1398C21.6928 43.0287 22.5746 43.0023 23.3677 42.8344C25.5392 42.3707 27.4111 41.4128 29.4383 40.5618C29.7281 40.441 31.2742 39.6732 31.3379 40.6242C31.3823 41.2573 30.5337 41.3545 30.0512 41.5446C29.4216 41.7932 28.9835 41.9736 28.5176 42.2194C31.4822 42.3568 33.9919 42.8455 36.9176 43.1398C37.7358 43.2231 39.1501 43.5563 39.738 43.2022C40.294 42.8676 40.3371 41.1934 40.4119 40.0716C40.5117 38.6195 40.5367 37.5755 40.5367 36.3886C40.5367 31.0131 40.466 26.3873 40.2289 21.4088C40.1096 18.9169 40.0763 16.3277 39.738 14.2272C38.4124 13.994 36.7707 14.2869 35.3244 14.473C33.892 14.6562 32.4611 14.6979 30.9095 15.0255C28.7977 15.4698 26.6886 16.5304 24.7779 17.3578C24.3896 17.5258 22.8796 18.2421 22.9379 17.1732C22.9642 16.7137 23.4454 16.6303 23.7976 16.4985C25.0067 16.0445 26.1049 15.5475 27.1088 15.0866C24.111 14.8325 21.0258 14.0176 17.9725 14.2272Z" fill="white"/>
<path fill-rule="evenodd" clip-rule="evenodd" d="M29.3148 21.9003C29.4437 22.3654 29.3467 23.0554 29.3772 23.619C29.9276 23.5982 30.0843 22.6417 30.725 22.6375C31.0494 22.6347 31.3267 22.9166 31.3378 23.19C31.3711 24.0008 29.66 24.6852 29.3772 25.3377C29.3772 26.1151 29.3772 26.894 29.3772 27.6715C30.0316 27.466 30.8109 26.8565 31.5222 26.5053C31.9479 25.5751 31.5763 23.5344 32.9934 23.8037C33.4108 24.309 32.9518 25.0753 32.8714 25.6445C33.3165 25.5224 34.9014 24.2937 35.0179 25.4002C35.0983 26.1679 33.8975 26.2818 33.4233 26.6885C34.0695 26.8801 35.7112 27.2161 35.0179 28.0394C34.4577 28.7016 33.0378 27.491 32.1365 27.5479C31.1797 27.6076 30.6695 28.5961 29.99 28.7141C30.6307 29.1583 31.3863 29.4846 32.0131 29.9427C32.9948 29.7594 33.6978 29.2971 34.8335 29.2666C35.714 30.1121 34.3107 30.6022 33.4843 30.6785C33.8337 31.2504 35.0151 31.2019 35.0179 31.9683C35.0221 33.1039 33.3345 32.0807 32.8714 31.7225C32.9214 32.3223 33.3096 32.8582 33.1168 33.5023C31.7011 34.2409 31.9091 31.8808 31.5222 30.9867C30.8636 30.5009 30.0802 30.1385 29.3772 29.697C29.5505 30.5841 29.147 31.1922 29.3772 32.0293C29.5935 32.8179 31.2976 33.3912 31.3379 34.1784C31.3559 34.4991 31.0744 34.7559 30.9094 34.792C30.1135 34.9684 29.9845 33.9285 29.3772 33.748C29.2857 34.4908 29.5907 35.4487 29.1304 35.7125C28.2582 36.2123 28.1598 34.8212 28.2735 33.8091C27.7299 33.8438 27.5497 34.8989 26.8009 34.792C26.5485 34.7559 26.3156 34.4908 26.31 34.2395C26.2948 33.4093 27.9934 32.7846 28.2735 32.0904C28.2735 31.313 28.2735 30.5356 28.2735 29.7581C27.6329 29.9775 26.8522 30.5855 26.127 30.9243C25.7582 31.8558 25.9551 34.2284 24.5324 33.5023C24.3494 32.8859 24.7002 32.3362 24.7779 31.7836C24.3633 31.9224 22.7188 33.1538 22.6328 32.0293C22.5718 31.2449 23.7532 31.2144 24.1664 30.741C23.4495 30.5369 21.884 30.1773 22.8159 29.2666C23.9251 29.3027 24.642 29.7303 25.5752 29.9427C26.2824 29.5651 26.9147 29.1125 27.6606 28.7765C26.9202 28.4739 26.4127 27.6256 25.5752 27.5479C24.6184 27.459 23.7172 28.4572 22.6938 28.1004C22.0671 27.1217 23.4551 26.9051 24.2274 26.7496C23.8239 26.2401 22.5468 26.2068 22.6328 25.4002C22.7424 24.3576 24.269 25.3877 24.7779 25.7056C24.7293 25.0906 24.226 24.3354 24.6558 23.8037C24.9013 23.687 25.2701 23.7398 25.4532 23.8648C25.7471 24.6547 25.908 25.5779 26.1271 26.4428C26.7704 26.9453 27.5525 27.3077 28.2735 27.7325C28.0877 26.9037 28.5189 26.2123 28.2735 25.4002C28.0475 24.6547 26.335 24.005 26.3101 23.2511C26.299 22.8818 26.6318 22.6528 26.8619 22.6375C27.5608 22.5903 27.7092 23.501 28.2735 23.7426C28.1209 22.6639 28.3067 21.0535 29.3148 21.9003Z" fill="white"/>
</svg>
