<svg width="35" height="35" viewBox="0 0 35 35" fill="none" xmlns="http://www.w3.org/2000/svg">
<path d="M17.2545 34.5157C7.74046 34.5157 0 26.7739 0 17.2583C0 7.74269 7.74046 0.000976562 17.2545 0.000976562C26.7686 0.000976562 34.509 7.74269 34.509 17.2583C34.509 26.7739 26.7689 34.5157 17.2545 34.5157ZM17.2545 1.13579C8.36609 1.13579 1.13493 8.36814 1.13493 17.258C1.13493 26.1479 8.36609 33.3803 17.2545 33.3803C26.143 33.3803 33.3741 26.1479 33.3741 17.258C33.3741 8.36814 26.1432 1.13579 17.2545 1.13579Z" fill="white"/>
<path d="M8.39856 26.6279C8.0178 26.6279 7.64214 26.5663 7.28804 26.4188C6.69731 26.1724 5.93947 25.5723 5.68383 24.1105C5.45769 22.8667 5.53345 21.4671 5.60665 20.1135C5.64183 19.4591 5.67532 18.8414 5.67532 18.2517C5.67532 17.6532 5.51812 16.2791 5.36604 14.9499C5.17254 13.2597 4.9901 11.6629 5.03664 11.0094C5.0687 10.1331 5.24347 9.27207 5.41286 8.43919C5.66737 7.18546 5.90797 6.00155 5.6841 4.74811C5.62906 4.43964 5.8342 4.14479 6.1429 4.08974C6.45358 4.0344 6.7464 4.24014 6.80116 4.54861C7.06304 6.01517 6.78952 7.36226 6.5248 8.66508C6.3574 9.48917 6.19936 10.2679 6.16957 11.071C6.12899 11.6388 6.3225 13.3292 6.49331 14.8211C6.65617 16.2442 6.80995 17.5885 6.80995 18.2517C6.80995 18.8717 6.7742 19.5343 6.73958 20.1745C6.66979 21.4626 6.598 22.7947 6.80087 23.911C6.93735 24.6923 7.23952 25.1684 7.7247 25.3708C8.6769 25.7678 10.3169 25.1029 11.5187 24.2666C11.5273 24.2606 11.5363 24.2547 11.5454 24.249C13.5931 22.9887 14.6568 21.3548 14.797 19.2537C14.9408 16.8753 14.0244 16.0195 11.9163 15.0015C10.0956 14.1309 7.34138 12.8133 7.43558 9.99061C7.45601 9.35722 7.67959 8.86827 8.09979 8.53852C9.05426 7.78991 10.7331 8.14406 12.2139 8.45678C12.8171 8.5842 13.3865 8.70424 13.7889 8.72269C14.5933 8.7539 18.6432 8.77745 18.8779 6.19791C18.9428 5.42263 18.6163 4.62608 18.271 3.78298C17.8479 2.75031 17.4104 1.68246 17.6031 0.478106C17.6524 0.168505 17.943 -0.0434825 18.2531 0.00759746C18.5624 0.0569747 18.7732 0.348135 18.7235 0.657736C18.5814 1.54681 18.9409 2.42396 19.3211 3.35248C19.7021 4.2827 20.0959 5.24442 20.0085 6.2961C19.7543 9.08989 16.61 9.96903 13.7412 9.85665C13.2427 9.83424 12.6293 9.70484 11.9798 9.56749C10.8653 9.33281 9.33771 9.00987 8.80061 9.43156C8.70754 9.50477 8.58214 9.64581 8.56994 10.0281C8.50553 11.9506 10.3486 12.9941 12.4077 13.9788C14.8316 15.1491 16.1098 16.3475 15.9293 19.3263C15.7653 21.7847 14.4948 23.7623 12.1535 25.2079C11.5891 25.5989 9.95397 26.6279 8.39856 26.6279Z" fill="white"/>
<path d="M22.1478 33.7852C22.0326 33.7852 21.9162 33.7503 21.8155 33.6774C19.9083 32.2959 21.3034 29.65 22.4244 27.5237C22.9212 26.5818 23.4348 25.6079 23.4348 25.1326C23.4348 24.4685 23.3218 24.456 22.5853 24.3749C22.1347 24.3252 21.574 24.2634 21.0554 23.9302C19.6118 23.002 19.2426 20.6744 19.8881 19.2916C20.9776 16.7231 24.3557 18.127 26.5913 19.0558C27.1587 19.2916 27.6953 19.5143 28.0811 19.6273C28.0965 19.6318 28.1112 19.6367 28.126 19.6426C29.1775 20.047 29.5506 19.9775 29.6794 19.9C29.7622 19.8503 29.8159 19.7297 29.8394 19.5416C29.9467 18.7901 29.0001 18.1289 28.309 17.6468L28.2369 17.5963C27.7492 17.2416 27.031 16.9936 26.3368 16.7532C24.7385 16.201 22.5492 15.4441 23.3825 12.8754C24.1957 10.4343 28.5944 7.74268 30.719 7.08914C31.0172 6.9972 31.3361 7.16491 31.428 7.46458C31.5202 7.76425 31.352 8.0818 31.0526 8.17375C28.9431 8.82274 25.0702 11.4 24.4607 13.2295C24.017 14.5982 24.764 15.0085 26.7076 15.6802C27.4808 15.9473 28.28 16.2237 28.8963 16.672L28.9587 16.7154C29.8391 17.3298 31.169 18.2586 30.9641 19.6914C30.8796 20.3699 30.5357 20.7093 30.2625 20.8731C29.5423 21.3047 28.5394 21.015 27.7401 20.7096C27.2983 20.5785 26.768 20.358 26.1555 20.1034C23.7449 19.102 21.5315 18.3216 20.9243 19.7527C20.4508 20.7681 20.8449 22.4446 21.6688 22.9747C21.9628 23.164 22.3254 23.204 22.7093 23.246C23.4498 23.3278 24.5694 23.4512 24.5694 25.132C24.5694 25.8883 24.0405 26.8911 23.4285 28.0526C22.2632 30.2627 21.4532 32.0125 22.4811 32.7571C22.7351 32.941 22.7918 33.2957 22.608 33.5497C22.497 33.7038 22.3237 33.7852 22.1478 33.7852Z" fill="white"/>
</svg>
