<svg width="31" height="24" viewBox="0 0 31 24" fill="none" xmlns="http://www.w3.org/2000/svg">
<path d="M29.8928 23.0999H0.517624C0.231896 23.0999 0 22.868 0 22.5822V8.21578C0 7.93001 0.231896 7.69807 0.517624 7.69807C0.803353 7.69807 1.03525 7.93001 1.03525 8.21578V22.0645H29.3752V8.21578C29.3752 7.93001 29.6071 7.69807 29.8928 7.69807C30.1785 7.69807 30.4104 7.93001 30.4104 8.21578V22.5822C30.4104 22.8683 30.1788 23.0999 29.8928 23.0999Z" fill="white"/>
<path d="M29.8928 17.1465H0.517624C0.231896 17.1465 0 16.9146 0 16.6288C0 16.3431 0.231896 16.1111 0.517624 16.1111H29.8928C30.1785 16.1111 30.4104 16.3431 30.4104 16.6288C30.4104 16.9146 30.1788 17.1465 29.8928 17.1465Z" fill="white"/>
<path d="M29.8928 11.6241H0.517624C0.231896 11.6241 0 11.3922 0 11.1064C0 10.8206 0.231896 10.5887 0.517624 10.5887H29.8928C30.1785 10.5887 30.4104 10.8206 30.4104 11.1064C30.4104 11.3922 30.1788 11.6241 29.8928 11.6241Z" fill="white"/>
<path d="M11.5607 9.41067C11.275 9.41067 11.0431 9.17873 11.0431 8.89296C11.0431 7.22775 9.6885 5.8729 8.0233 5.8729C6.35836 5.8729 5.004 7.22775 5.004 8.89296C5.004 9.17873 4.7721 9.41067 4.48637 9.41067C4.20065 9.41067 3.96875 9.17873 3.96875 8.89296C3.96875 6.65671 5.78742 4.83748 8.0233 4.83748C10.2594 4.83748 12.0784 6.65671 12.0784 8.89296C12.0784 9.17873 11.8467 9.41067 11.5607 9.41067Z" fill="white"/>
<path d="M26.1386 9.41067C25.8529 9.41067 25.621 9.17873 25.621 8.89296C25.621 7.22775 24.2664 5.8729 22.6012 5.8729C20.9362 5.8729 19.5819 7.22775 19.5819 8.89296C19.5819 9.17873 19.35 9.41067 19.0643 9.41067C18.7785 9.41067 18.5466 9.17873 18.5466 8.89296C18.5466 6.65671 20.3653 4.83748 22.6012 4.83748C24.8373 4.83748 26.6562 6.65671 26.6562 8.89296C26.6562 9.17873 26.4244 9.41067 26.1386 9.41067Z" fill="white"/>
<path d="M18.7426 4.57319C18.4569 4.57319 18.225 4.34125 18.225 4.05548C18.225 2.39026 16.8704 1.03542 15.2052 1.03542C13.5402 1.03542 12.1859 2.39026 12.1859 4.05548C12.1859 4.34125 11.954 4.57319 11.6683 4.57319C11.3825 4.57319 11.1506 4.34125 11.1506 4.05548C11.1506 1.81923 12.9693 0 15.2052 0C17.4413 0 19.2603 1.81923 19.2603 4.05548C19.2603 4.34151 19.0286 4.57319 18.7426 4.57319Z" fill="white"/>
</svg>
