<svg width="214" height="180" viewBox="0 0 214 180" fill="none" xmlns="http://www.w3.org/2000/svg">
<path d="M74.6987 12.3707V55H67.3498V12.3707H74.6987ZM106.407 49.32L117.621 58.2206L112.848 62.4074L101.84 53.5946L106.407 49.32ZM117.709 32.5142V34.8565C117.709 38.0771 117.289 40.9659 116.45 43.5229C115.61 46.0799 114.41 48.2562 112.848 50.052C111.287 51.8477 109.423 53.2238 107.256 54.1802C105.09 55.1171 102.689 55.5856 100.054 55.5856C97.4382 55.5856 95.0471 55.1171 92.8805 54.1802C90.7335 53.2238 88.8694 51.8477 87.2884 50.052C85.7073 48.2562 84.4777 46.0799 83.5993 43.5229C82.7405 40.9659 82.3111 38.0771 82.3111 34.8565V32.5142C82.3111 29.2936 82.7405 26.4146 83.5993 23.8771C84.4581 21.3202 85.6683 19.1438 87.2298 17.3481C88.8108 15.5328 90.6749 14.1567 92.822 13.2198C94.9886 12.2634 97.3796 11.7852 99.9952 11.7852C102.63 11.7852 105.031 12.2634 107.198 13.2198C109.384 14.1567 111.258 15.5328 112.819 17.3481C114.381 19.1438 115.581 21.3202 116.42 23.8771C117.279 26.4146 117.709 29.2936 117.709 32.5142ZM110.33 34.8565V32.4557C110.33 30.0744 110.096 27.9761 109.628 26.1608C109.179 24.3261 108.505 22.7938 107.608 21.5641C106.729 20.3149 105.646 19.378 104.358 18.7534C103.089 18.1093 101.635 17.7872 99.9952 17.7872C98.3946 17.7872 96.96 18.1093 95.6913 18.7534C94.4225 19.378 93.3392 20.3149 92.4414 21.5641C91.5435 22.7938 90.8603 24.3261 90.3919 26.1608C89.9234 27.9761 89.6892 30.0744 89.6892 32.4557V34.8565C89.6892 37.2378 89.9234 39.3458 90.3919 41.1806C90.8603 43.0154 91.5435 44.5672 92.4414 45.8359C93.3588 47.0851 94.4518 48.0318 95.7205 48.6759C97.0088 49.3005 98.4532 49.6128 100.054 49.6128C101.693 49.6128 103.147 49.3005 104.416 48.6759C105.685 48.0318 106.758 47.0851 107.637 45.8359C108.515 44.5672 109.179 43.0154 109.628 41.1806C110.096 39.3458 110.33 37.2378 110.33 34.8565ZM132.523 12.3707V55H125.175V12.3707H132.523ZM149.915 31.021V36.8474H130.65V31.021H149.915ZM152.345 12.3707V18.2264H130.65V12.3707H152.345Z" fill="#8CB9DF"/>
<path d="M205.808 171.288C210.036 171.288 213.505 167.774 213.505 163.406C213.505 159.058 210.036 155.526 205.808 155.526H159.46C156.787 161.355 153.288 166.661 149.023 171.288H205.808Z" fill="#8CB9DF"/>
<path d="M7.67898 155.526C3.44818 155.526 0 159.058 0 163.406C0 167.774 3.44818 171.288 7.67898 171.288H64.4812C60.2158 166.661 56.7178 161.355 54.0524 155.526H7.67898Z" fill="#8CB9DF"/>
<path d="M164.785 138.331H205.886C210.071 138.331 213.505 135.109 213.505 131.168C213.505 127.199 210.071 124.002 205.886 124.002H164.785C165.115 126.367 165.551 128.717 165.551 131.168C165.551 133.62 165.113 135.964 164.785 138.331Z" fill="#8CB9DF"/>
<path d="M48.7192 124.002H7.60019C3.41274 124.002 0 127.199 0 131.168C0 135.109 3.41274 138.331 7.60019 138.331H48.7192C48.3899 135.966 47.9597 133.62 47.9597 131.168C47.9597 128.717 48.3918 126.369 48.7192 124.002Z" fill="#8CB9DF"/>
<path d="M7.67904 91.0449C3.44824 91.0449 6.10352e-05 94.587 6.10352e-05 98.9595C6.10352e-05 103.277 3.44824 106.807 7.67904 106.807H54.0524C56.7178 100.981 60.2159 95.6678 64.4813 91.0449H7.67904Z" fill="#8CB9DF"/>
<path d="M205.808 106.807C210.036 106.807 213.505 103.277 213.505 98.9595C213.505 94.587 210.036 91.0449 205.808 91.0449H149.023C153.288 95.6678 156.787 100.981 159.46 106.807H205.808Z" fill="#8CB9DF"/>
<path d="M148.728 145.494L138.488 147.987L133.012 144.308L142.856 139.788C144.124 139.198 144.664 137.705 144.079 136.471C143.463 135.247 141.986 134.714 140.69 135.289L128.156 141.075L123.189 137.758V124.914L128.156 121.6L140.69 127.375C141.049 127.538 141.412 127.625 141.771 127.625C142.706 127.625 143.634 127.085 144.081 126.184C144.666 124.961 144.126 123.455 142.858 122.882L132.996 118.358L138.502 114.687L148.728 117.191C148.942 117.246 149.151 117.263 149.364 117.263C150.495 117.263 151.535 116.524 151.806 115.377C152.165 114.084 151.323 112.724 149.971 112.384L144.083 110.956L147.825 108.454C148.991 107.684 149.288 106.107 148.496 104.996C147.71 103.871 146.139 103.554 144.963 104.35L141.426 106.709L142.193 100.842C142.376 99.4689 141.412 98.2428 139.99 98.0442C138.626 97.8781 137.347 98.8367 137.161 100.195L135.825 110.45L130.322 114.137L129.604 103.483C129.518 102.125 128.299 101.018 126.908 101.163C125.511 101.272 124.454 102.437 124.555 103.821L125.468 117.38L120.794 120.51L109.276 113.977V108.259L121.229 101.377C122.432 100.68 122.844 99.1671 122.14 97.9812C121.432 96.7934 119.877 96.4267 118.673 97.097L109.278 102.498V95.9798L117.171 89.1088C118.223 88.2074 118.316 86.6338 117.376 85.6179C116.445 84.5847 114.832 84.4931 113.796 85.4097L109.278 89.3437V84.9265C109.278 83.5688 108.15 82.4478 106.748 82.4478C105.349 82.4478 104.218 83.5688 104.218 84.9265V89.1393L99.7033 85.2054C98.644 84.2849 97.054 84.3555 96.1176 85.3982C95.1812 86.4085 95.2768 87.9801 96.3283 88.9025L104.218 95.7564V102.289L94.8243 96.8889C93.6186 96.1861 92.0676 96.57 91.3575 97.7654C90.6513 98.9265 91.0591 100.46 92.2608 101.165L104.219 108.04V113.977L92.69 120.51L88.0196 117.38L88.9503 103.821C89.0342 102.437 87.9846 101.272 86.5878 101.163C85.2476 101.018 83.9814 102.125 83.8897 103.483L83.166 114.137L77.6744 110.471L76.3185 100.177C76.1332 98.8368 74.8555 97.8494 73.4762 98.0442C72.0853 98.2428 71.1059 99.4689 71.3049 100.842L72.0755 106.724L68.5172 104.35C67.3721 103.554 65.7938 103.871 64.9939 104.996C64.1941 106.105 64.5003 107.682 65.6669 108.454L69.4126 110.956L63.5308 112.384C62.1808 112.726 61.3517 114.086 61.6951 115.377C61.978 116.526 63.0236 117.263 64.1336 117.263C64.3521 117.263 64.5549 117.246 64.7676 117.191L75.0017 114.687L80.5071 118.358L70.6435 122.882C69.3775 123.455 68.8352 124.961 69.438 126.184C69.8613 127.096 70.7763 127.625 71.7283 127.625C72.0872 127.625 72.4461 127.538 72.807 127.375L85.3314 121.583L90.2788 124.9V137.779L85.347 141.075L72.807 135.289C71.5273 134.714 70.0369 135.249 69.438 136.471C68.8352 137.705 69.3775 139.2 70.6435 139.788L80.4875 144.308L75.0095 147.987L64.7657 145.494C63.4137 145.17 62.0267 145.949 61.6931 147.276C61.3497 148.603 62.1789 149.944 63.5289 150.284L69.397 151.726L65.665 154.218C64.4984 155.001 64.1922 156.552 64.992 157.669C65.4934 158.377 66.2874 158.763 67.0853 158.763C67.5964 158.763 68.0802 158.635 68.5133 158.333L72.0716 155.959L71.3009 161.811C71.1019 163.184 72.0813 164.406 73.4723 164.582C73.5835 164.616 73.6927 164.616 73.7981 164.616C75.0466 164.616 76.1507 163.724 76.3146 162.462L77.6705 152.213L83.1621 148.525L83.8859 159.179C83.9776 160.503 85.0759 161.503 86.4103 161.503C86.4727 161.503 86.5234 161.503 86.5839 161.503C87.9807 161.398 89.0303 160.233 88.9464 158.862L88.0158 145.288L92.9612 141.967L104.216 148.321V154.05L92.2569 160.938C91.0551 161.631 90.6475 163.153 91.3537 164.341C92.0638 165.512 93.6147 165.907 94.8203 165.212L104.214 159.821V166.323L96.3244 173.194C95.2729 174.105 95.1754 175.666 96.1138 176.683C97.0482 177.732 98.64 177.791 99.6993 176.907L104.214 172.969V177.382C104.214 178.765 105.345 179.886 106.744 179.886C108.147 179.886 109.274 178.765 109.274 177.382V173.194L113.792 177.14C114.272 177.541 114.875 177.747 115.478 177.747C116.166 177.747 116.861 177.48 117.372 176.918C118.31 175.901 118.219 174.31 117.167 173.408L109.274 166.543V160.039L118.669 165.437C119.063 165.659 119.51 165.793 119.945 165.793C120.809 165.793 121.666 165.332 122.136 164.565C122.84 163.384 122.429 161.868 121.225 161.16L109.272 154.266V148.319L120.513 141.965L125.464 145.286L124.551 158.86C124.45 160.231 125.507 161.396 126.904 161.501C126.964 161.501 127.015 161.501 127.074 161.501C128.4 161.501 129.514 160.503 129.6 159.177L130.318 148.544L135.821 152.211L137.158 162.46C137.343 163.722 138.426 164.614 139.694 164.614C139.779 164.614 139.906 164.614 140.002 164.58C141.408 164.404 142.372 163.182 142.189 161.809L141.422 155.971L144.959 158.329C145.408 158.629 145.895 158.759 146.408 158.759C147.222 158.759 148.006 158.373 148.49 157.665C149.282 156.548 148.985 154.999 147.819 154.214L144.095 151.722L149.965 150.28C151.317 149.94 152.159 148.6 151.8 147.272C151.477 145.951 150.097 145.172 148.728 145.494ZM118.131 137.592L106.748 144.033L95.3509 137.592V124.723L106.748 118.268L118.131 124.723V137.592Z" fill="#8CB9DF"/>
</svg>
