<svg width="260" height="243" viewBox="0 0 260 243" fill="none" xmlns="http://www.w3.org/2000/svg">
<path d="M25.7505 154.161H22.1063V144.404H4.52193V154.161H0.893555V132.224H4.52193V141.122H22.1063V132.224H25.7505V154.161Z" fill="white"/>
<path d="M36.7268 132.224H33.0786V154.161H36.7268V132.224Z" fill="white"/>
<path d="M70.9711 142.856C70.9711 146.436 69.6858 149.302 67.139 151.51C64.5764 153.695 61.1932 154.804 56.9656 154.804C53.1039 154.804 49.8828 153.82 47.3005 151.862C44.3582 149.638 42.897 146.737 42.897 143.162C42.897 139.652 44.374 136.759 47.3578 134.495C49.954 132.518 53.274 131.521 57.2721 131.521C62.0948 131.521 66.0495 133.291 69.1539 136.825L65.7569 138.527C63.475 136.091 60.5327 134.861 56.9656 134.861C54.1697 134.861 51.8444 135.545 49.9541 136.92C47.7711 138.523 46.6875 140.599 46.6875 143.16C46.6875 145.632 47.6248 147.629 49.5012 149.161C51.3797 150.705 53.8731 151.467 56.9656 151.467C61.816 151.467 64.9659 149.582 66.4192 145.798H56.2103V142.523H70.9711V142.856Z" fill="white"/>
<path d="M102.019 154.161H98.373V144.404H80.7926V154.161H77.1562V132.224H80.7926V141.122H98.373V132.224H102.019V154.161Z" fill="white"/>
<path d="M131.387 142.859C133.887 143.702 135.142 145.558 135.142 148.398C135.142 152.232 132.37 154.16 126.83 154.16H109.342V132.211H127.077C129.295 132.211 131.047 132.763 132.323 133.849C133.6 134.942 134.235 136.405 134.235 138.217C134.235 140.222 133.28 141.778 131.387 142.859ZM127.142 141.406C128.158 141.406 128.997 141.113 129.667 140.538C130.353 139.955 130.693 139.245 130.693 138.414C130.693 137.526 130.381 136.807 129.774 136.287C129.183 135.753 128.338 135.492 127.287 135.492H112.979V141.408H127.142V141.406ZM126.863 150.887C129.893 150.887 131.411 149.891 131.411 147.894C131.411 145.742 130.098 144.669 127.443 144.669H112.981V150.887H126.863Z" fill="white"/>
<path d="M164.372 154.161H141.396V132.224H163.516V135.491H145.026V141.122H157.882V144.404H145.026V150.888H164.372V154.161Z" fill="white"/>
<path d="M194.744 154.161H190.512L184.566 145.796H173.493V154.161H169.849V132.224H187.161C189.466 132.224 191.273 132.843 192.582 134.075C193.901 135.327 194.564 137.009 194.564 139.131C194.564 140.992 194.02 142.482 192.948 143.612C191.96 144.669 190.595 145.33 188.867 145.62L194.744 154.161ZM186.615 142.52C189.421 142.52 190.833 141.397 190.833 139.129C190.833 136.703 189.308 135.491 186.275 135.491H173.493V142.52H186.615Z" fill="white"/>
<path d="M225.298 154.161H221.07L215.12 145.796H204.049V154.161H200.415V132.224H217.711C220.026 132.224 221.829 132.843 223.138 134.075C224.461 135.327 225.118 137.009 225.118 139.131C225.118 140.992 224.578 142.482 223.506 143.612C222.5 144.669 221.157 145.33 219.417 145.62L225.298 154.161ZM217.163 142.52C219.983 142.52 221.385 141.397 221.385 139.129C221.385 136.703 219.866 135.491 216.847 135.491H204.051V142.52H217.163Z" fill="white"/>
<path d="M255.091 132.224L243.089 145.494V154.161H239.455V145.494L227.446 132.224H231.994L241.295 142.461L250.557 132.224H255.091Z" fill="white"/>
<path d="M255.285 120.613L252.792 122.456H218.331C219.964 120.945 225.25 115.01 224.198 102.102C223.927 98.7242 222.8 95.5467 221.121 92.6143C222.183 94.8131 222.889 97.1839 223.124 99.7465C224.473 114.4 218.853 120.546 216.498 122.454H176.074L176.024 118.393V75.8604C177.663 76.424 179.267 77.0072 180.819 77.6301C186.89 81.1537 193.114 86.4727 194.307 93.9767C195.038 98.6056 195.22 104.332 194.322 108.045C192.127 117.129 185.65 121.554 185.65 121.554H212.787C212.787 121.554 222.462 117.635 220.265 97.3282C218.823 84.003 204.082 75.9929 195.649 72.8351C189.428 70.3595 182.844 68.3229 176.024 66.6738V62.5352C176.066 62.3197 176.093 62.1022 176.093 61.8807C176.093 55.3397 193.021 53.133 193.021 53.133V50.5091L189.043 48.0117C189.043 48.0117 187.352 50.5091 185.78 50.5091H180.517C174.114 50.5091 163.597 52.1977 163.597 52.1977C163.597 52.1977 153.398 50.5091 146.04 50.5091C141.98 50.5091 131.004 50.4439 131.004 50.4439L134.611 52.8859C134.611 52.8859 151.515 53.8824 151.515 61.8807C151.515 62.1457 151.545 62.3771 151.59 62.6282C137.296 61.2065 122.581 61.3291 108.342 62.8813V62.5273C108.38 62.3197 108.406 62.1022 108.406 61.8807C108.406 55.3397 125.325 53.133 125.325 53.133V50.5091L121.335 48.0117C121.335 48.0117 120.451 50.4419 120.214 50.4419C117.24 50.4419 115.01 50.5072 112.829 50.5072C106.414 50.5072 95.3512 52.1958 95.3512 52.1958C95.3512 52.1958 85.7058 50.5072 78.3639 50.5072C74.2887 50.5072 63.2908 50.4419 63.2908 50.4419L66.9192 52.8839C66.9192 52.8839 83.8293 53.8804 83.8293 61.8787C83.8293 62.1575 83.857 62.4106 83.8946 62.6637V67.1226C80.2741 68.0579 74.4212 69.6457 71.6015 70.7807C65.4975 73.2583 56.4493 75.8802 56.4493 75.8802C56.4493 75.8802 42.8196 76.1847 35.2167 76.1847H23.3686V78.5753C23.3686 78.5753 40.8778 79.5837 40.8778 87.5701C40.8778 87.8391 40.9075 88.0961 40.953 88.3532V121.55H66.2489V88.2147C66.3082 88.013 66.3142 87.7817 66.3181 87.5701C66.4664 79.6015 76.4381 75.4728 83.8946 73.3255V75.4214C76.8711 77.7527 68.9381 81.824 68.8155 88.974C68.7977 89.1915 68.7977 89.417 68.7463 89.6246V122.454H0.354492L3.98486 124.447H259.27V122.454L255.285 120.613ZM176.024 75.2C176.216 75.2613 176.396 75.3186 176.572 75.3898C177.822 75.985 179.14 76.6731 180.473 77.4304C180.008 77.1912 179.51 76.94 179.061 76.7265C178.069 76.3251 177.052 75.9494 176.024 75.5717V75.2ZM83.8926 118.395L83.8471 122.456H69.9248V90.6192C69.9742 90.4135 69.988 90.198 69.988 89.9766C69.988 82.9511 77.0906 79.0835 83.8926 76.8155V118.395ZM151.59 117.845C151.59 117.845 142.9 117.956 129.51 117.956C116.115 117.956 108.342 117.845 108.342 117.845V71.4015C123.742 69.0327 138.39 68.8607 151.59 70.4465V117.845ZM151.59 69.6912C138.441 67.9155 123.791 67.9155 108.342 70.1104V68.4613C123.862 66.4978 138.512 66.7766 151.59 68.7756V69.6912Z" fill="white"/>
<path d="M253.027 165.699H213.832C213.207 165.27 212.788 165.081 212.788 165.081H185.651C185.651 165.081 185.968 165.316 186.438 165.699H66.2484V165.081H40.9524V165.699H0L3.9784 167.689H40.9524V198.306C40.9069 198.553 40.8773 198.808 40.8773 199.087C40.8773 207.061 23.3681 208.085 23.3681 208.085V210.48H35.2122C42.821 210.48 56.4487 210.773 56.4487 210.773C56.4487 210.773 65.497 213.399 71.601 215.866C74.4167 217.005 80.2735 218.589 83.9079 219.516V221.077C80.4653 220.145 76.3268 218.965 74.1003 218.061C67.9864 215.566 58.9382 213.77 58.9382 213.77C58.9382 213.77 45.3085 213.466 37.7056 213.466H28.0701L28.2323 215.058L58.4716 215.097C58.4716 215.097 69.9578 216.928 76.0658 219.416C77.873 220.149 80.9636 221.011 83.9079 221.749V228.974C83.8564 229.229 83.8287 229.484 83.8287 229.755C83.8287 237.753 63.2903 238.669 63.2903 238.669L66.9186 242.619H78.3635C85.7053 242.619 95.3467 240.905 95.3467 240.905C95.3467 240.905 106.418 242.619 112.828 242.619H125.325V239.99L121.335 236.023L119.383 237.51C119.383 237.51 108.405 234.665 108.405 229.755C108.405 229.528 108.387 229.314 108.342 229.114V226.453C122.622 228.349 137.262 228.723 151.594 227.534V228.976C151.544 229.231 151.515 229.486 151.515 229.757C151.515 237.755 130.624 238.655 130.624 238.655L134.612 242.621H146.037C153.399 242.621 163.588 240.907 163.588 240.907C163.588 240.907 174.119 242.621 180.518 242.621H193.013V239.992L189.038 236.025C189.038 236.025 187.29 237.041 186.719 236.929C181.75 235.863 176.099 234.344 176.099 229.757C176.099 229.53 176.075 229.316 176.02 229.112V223.876C183.615 222.2 191.014 220.076 198.051 217.422C212.165 212.111 222.008 202.581 223.45 192.686C226.105 174.437 217.277 167.962 217.277 167.962H216.824C219.485 170.073 224.419 176.154 222.764 191.349C221.461 203.148 207.663 212.428 199.222 215.603C191.975 218.512 184.166 220.821 176.022 222.621V219.987C182.847 218.346 189.442 216.299 195.653 213.824C204.088 210.668 218.825 202.652 220.262 189.327C221.601 177.018 218.574 170.758 215.987 167.697H259.273V165.707L255.285 163.839L253.027 165.699ZM129.511 173.676C142.901 173.676 151.596 173.789 151.596 173.789V217.881C138.514 219.894 123.85 220.163 108.344 218.198V173.789C108.342 173.787 116.109 173.676 129.511 173.676ZM66.3196 199.087C66.3156 198.855 66.3097 198.646 66.2503 198.438V167.689H68.7477V200.516C68.7932 200.718 68.7991 200.937 68.807 201.173C68.8584 203.868 70.0428 206.116 71.8402 208C68.6765 205.76 66.3848 202.863 66.3196 199.087ZM73.3034 208.961C71.4487 207.077 70.205 204.853 70.1477 202.167C70.1477 201.928 70.1476 201.719 70.0923 201.511V167.689H83.9613L83.9098 173.239V213.325C80.493 212.345 76.5878 210.943 73.3034 208.961ZM151.596 226.334C137.205 227.594 122.472 227.351 108.344 225.682V223.774C122.582 225.338 137.298 225.454 151.596 224.037V226.334ZM194.324 178.608C195.221 182.319 195.04 188.057 194.308 192.676C192.827 201.964 183.666 207.961 176.569 211.259C176.387 211.328 176.206 211.394 176.02 211.457V173.239L176.081 167.689H188.483C190.515 169.905 193.084 173.49 194.324 178.608Z" fill="white"/>
<path d="M172.108 120.615L172.039 115.911V60.0412C172.094 59.8455 172.118 59.6162 172.118 59.3986C172.118 52.8557 189.042 50.643 189.042 50.643V48.0151H176.531C170.135 48.0151 159.623 49.7196 159.623 49.7196C159.623 49.7196 149.424 48.0151 142.051 48.0151H130.628V50.4038C130.628 50.4038 147.542 51.4142 147.542 59.3986C147.542 59.6735 147.565 59.9246 147.621 60.1777V115.349C147.621 115.349 138.917 115.472 125.52 115.472C112.124 115.472 104.367 115.349 104.367 115.349V60.0412C104.4 59.8455 104.44 59.6162 104.44 59.3986C104.44 52.8557 121.34 50.643 121.34 50.643V48.0151H108.839C102.449 48.0151 91.3717 49.7196 91.3717 49.7196C91.3717 49.7196 81.7323 48.0151 74.3746 48.0151H62.9496V50.4038C62.9496 50.4038 79.8538 51.4142 79.8538 59.3986C79.8538 59.6735 79.8834 59.9246 79.9289 60.1777V115.913L79.8736 120.617H0.00537109V122.608H255.29V120.617H172.108V120.615Z" fill="white"/>
<path d="M0 165.823H79.9651L79.9137 170.738V226.485C79.8801 226.736 79.8484 226.995 79.8484 227.254C79.8484 235.257 62.9443 236.261 62.9443 236.261V238.648H74.3732C81.721 238.648 91.3664 236.933 91.3664 236.933C91.3664 236.933 102.443 238.648 108.844 238.648H121.335V236.018C121.335 236.018 104.435 233.801 104.435 227.254C104.435 227.039 104.393 226.817 104.361 226.622V171.298C104.361 171.298 112.12 171.189 125.515 171.189C138.909 171.189 147.605 171.298 147.605 171.298V226.485C147.56 226.736 147.536 226.995 147.536 227.254C147.536 235.257 130.612 236.261 130.612 236.261V238.648H142.055C149.419 238.648 159.618 236.933 159.618 236.933C159.618 236.933 170.127 238.648 176.532 238.648H189.036V236.018C189.036 236.018 172.112 233.801 172.112 227.254C172.112 227.039 172.089 226.817 172.039 226.622V170.738L172.103 165.823H255.283V163.83H0V165.823Z" fill="white"/>
<path fill-rule="evenodd" clip-rule="evenodd" d="M129.679 24.1036C131.15 22.5672 132.596 21.0268 134.079 19.4944C135.134 17.7623 134.66 13.1077 135.597 11.8205C135.178 9.68889 132.922 9.36066 131.874 7.8836C130.901 6.5232 129.637 5.35064 128.817 3.93685C128.034 2.60413 127.553 1.36829 126.618 0.209572C126.381 0.0395219 126.418 0.0790931 125.971 0C125.078 1.60757 125.105 3.87161 124.204 5.70262C123.098 7.94688 119.974 8.7971 119.167 11.3914C116.88 14.9683 120.688 22.1085 122.669 23.6666C123.545 24.3389 124.496 24.4694 125.084 25.4185C125.849 26.6227 124.581 29.4048 126.175 30.2294C126.418 30.4132 126.234 30.3164 126.618 30.4607C127.191 28.8571 127.229 26.508 128.16 25.203C128.564 24.1807 128.866 24.6434 129.679 24.1036ZM130.13 9.19456H130.569V10.0745H130.13V9.19456ZM129.679 10.5114H130.132C130.033 10.9642 130.066 10.9267 129.904 11.162V11.3894H129.469C129.537 10.8792 129.57 10.8416 129.679 10.5114ZM128.815 11.3894C128.633 11.1303 128.633 11.0255 128.593 10.5114C128.759 10.7705 128.759 10.8792 128.815 11.3894ZM128.372 9.41203V10.292H128.158C128.034 9.93604 127.957 9.76995 127.931 9.19257C128.069 9.26375 128.224 9.34876 128.372 9.41203ZM124.202 7.22514C124.973 7.411 124.799 7.52964 125.299 7.88161C125.2 10.1417 123.751 9.98946 122.903 11.3874H122.236C122.982 9.99144 124.138 9.3824 124.202 7.22514ZM121.141 11.6089H121.584V12.0478H121.141V11.6089ZM127.053 24.9776C126.83 24.5781 126.772 24.6059 126.614 24.1036C126.448 23.7556 126.806 23.1228 127.273 22.7788V22.3379C126.555 22.5395 126.335 22.6878 125.968 23.2098C125.349 23.1208 124.057 22.8994 123.543 22.5652C123.259 22.1441 123.268 21.2365 122.667 20.5919C120.484 18.1855 120.032 17.007 120.471 13.1413C121.256 13.426 121.477 13.8749 122.236 14.2328C122.655 13.1809 123.522 12.1329 124.431 10.9405C124.494 10.8792 124.57 10.808 124.639 10.7349V10.9405H125.082C125.028 11.7176 125.018 11.8718 124.639 12.2693V12.4848C125.977 12.0637 126.456 10.7547 127.053 9.63548C127.464 9.92417 127.435 10.0745 127.929 10.292C127.785 12.3069 123.354 17.5863 122.017 18.6225V19.0535C124.342 18.2309 125.786 14.565 127.488 12.9278V12.7102C128.354 13.2421 127.437 14.4938 126.83 14.8972V15.3322C127.897 14.9723 128.718 13.5526 129.028 12.4868H129.467C129.384 13.2639 129.45 13.2046 129.028 13.5763V14.6737C129.098 14.6045 129.183 14.5333 129.256 14.4543C130.096 13.8433 130.1 12.6035 130.772 11.8224V11.6128H131.225C130.988 13.2441 130.409 15.0158 129.467 15.9926V16.6431C130.353 16.0519 131.648 14.5769 132.091 13.5783H132.528C132.501 14.6065 132.37 15.0474 131.872 15.5497V16.8606H132.317C132.528 16.3841 132.671 16.2457 132.754 15.5497H133.193C133.262 15.6288 133.347 15.696 133.41 15.7711C133.005 18.4484 131.308 21.4836 129.469 22.7808C128.536 23.4531 127.717 23.8307 127.277 24.9796H127.053V24.9776ZM126.83 10.5114C126.709 10.8634 126.648 11.0394 126.616 11.6108C126.919 11.5416 127.203 11.4606 127.488 11.3914C127.344 10.5945 127.526 10.7803 126.83 10.5114ZM126.391 12.0478C126.545 11.7176 126.677 11.945 126.391 11.6089C126.015 12.4196 125.606 12.906 124.868 13.3628V14.0093H125.297C125.73 13.3628 126.173 12.9653 126.391 12.0478ZM123.783 13.7958H123.328C123.555 13.9797 123.387 13.8769 123.783 14.0093V13.7958ZM122.669 14.8972H122.903C122.606 14.3593 122.998 14.737 122.448 14.4503C122.07 14.9347 121.736 15.2511 121.143 15.5457C121.064 15.7672 120.995 15.9886 120.919 16.2081H121.143V16.4276C121.924 16.1705 122.418 15.694 122.669 14.8972ZM129.028 15.3322C128.945 14.8715 128.983 14.913 128.815 14.6717C127.957 15.9313 125.325 19.5063 124.202 20.3743V20.5919C126.711 20.0916 127.211 16.6174 129.028 15.3322ZM123.106 16.4296C122.972 16.0499 123.073 16.222 122.901 15.9887C122.446 16.3545 122.017 16.7202 121.582 17.0821V17.529C122.604 17.3174 122.474 16.9239 123.106 16.4296ZM131.225 16.6392C131.02 15.9313 131.342 16.3011 130.772 15.9887C130.488 16.4632 130.1 17.3609 129.677 17.7425V18.4029H129.9C130.25 17.7247 130.693 17.1394 131.225 16.6392ZM127.931 18.1835V18.6225C128.783 18.3259 128.914 17.8354 129.467 17.3035C129.272 16.5976 129.59 16.9733 129.028 16.6392C128.736 17.2403 128.443 17.788 127.931 18.1835ZM129.902 19.4944V19.9373C130.731 19.5083 131.037 18.9882 131.648 18.4049C131.463 17.6951 131.779 18.0629 131.225 17.7445C130.968 18.4583 130.409 19.0297 129.902 19.4944ZM123.783 18.8379C123.367 19.4292 122.93 19.6071 122.669 20.3743C123.569 20.2221 123.751 20.0659 123.994 19.275H124.202C123.917 18.7411 124.314 19.1207 123.783 18.8379ZM127.715 19.0535H127.273C127.053 19.3461 126.828 19.6388 126.614 19.9354C127.004 20.236 127.626 19.188 127.715 19.0535ZM129.258 19.275V19.0535C127.945 19.3264 127.413 20.404 126.393 21.0269V21.6893C127.931 21.3868 128.172 20.0342 129.258 19.275ZM128.372 21.0269V21.4599C128.591 21.3966 128.815 21.3215 129.028 21.2464C129.098 21.1 129.183 20.9576 129.256 20.8153C129.028 20.7441 128.813 20.665 128.591 20.5938C128.447 20.9675 128.534 20.8094 128.372 21.0269ZM124.87 22.1263H125.082C124.947 21.7447 125.036 21.9147 124.87 21.6893V22.1263ZM120.471 26.0691C119.749 25.8575 119.017 25.6242 118.294 25.4166C115.326 24.0225 112.114 21.8317 107.768 21.9028C107.353 22.2192 106.776 22.069 106.24 22.3398C103.262 23.898 100.555 26.9411 95.9438 26.9411C95.8647 27.0182 95.8034 27.0933 95.7104 27.1684C95.9616 30.3796 100.179 29.7825 102.732 30.6703C104.638 31.3307 108.225 34.7831 111.055 33.9527C112.122 33.6422 114.21 33.0767 115.219 32.4281C117.771 30.7889 118.479 27.3266 122.017 30.6703C123.178 30.5635 123.191 30.1937 123.543 29.3652C122.529 28.3608 121.683 26.8461 120.471 26.0691ZM114.566 25.8555C114.438 26.5337 114.529 26.3815 114.129 26.7235V26.9371C114.93 26.8125 115.418 26.5179 115.885 26.0671H116.544V26.5041C115.154 27.1803 113.514 28.5467 111.925 28.7048C112.014 27.7854 112.162 27.4354 111.925 26.7235C112.662 26.4091 112.844 26.5792 113.03 25.6222C113.55 25.6953 114.058 25.7764 114.566 25.8555ZM111.492 24.9776C111.925 24.9084 112.371 24.8293 112.82 24.7601V25.6261H111.492V24.9776ZM108.646 24.1036C109.498 24.1194 109.759 24.1511 110.183 24.5366H110.625C110.481 24.6849 110.323 24.8293 110.183 24.9796C110.467 25.6558 110.647 25.5866 111.282 25.8575C110.914 26.2885 110.556 26.7255 110.183 27.1684C108.658 27.1091 108.808 26.6682 107.555 26.5061C107.994 25.112 109.069 25.3078 108.646 24.1036ZM106.022 30.2254C105.569 30.1463 105.603 30.1819 105.366 30.0099H104.917V29.7943C105.346 29.5551 105.886 29.2605 106.24 28.9144C106.621 29.0509 106.449 28.9599 106.685 29.1359H106.89C106.61 29.4977 106.301 29.8655 106.022 30.2254ZM107.988 30.0099C107.76 30.1819 107.788 30.1463 107.335 30.2254V29.5709H108.225C108.063 29.9584 108.17 29.7944 107.988 30.0099ZM108.646 28.9124C109.316 28.5644 110.042 28.076 110.625 27.6094C110.79 27.8783 110.649 27.8151 110.625 28.4755C110.226 28.6712 109.821 28.8511 109.53 29.1339H108.646V28.9124ZM112.601 31.5482C112.373 31.7242 112.545 31.6234 112.152 31.7697C112.004 31.4889 111.915 31.3149 111.715 31.1073V30.8898C112.223 30.8403 112.348 30.8522 112.599 30.6683H113.469C113.224 31.3366 113.263 31.3248 112.601 31.5482ZM114.566 30.0099C114.497 30.0929 114.432 30.1641 114.349 30.2254H113.92V29.7924H114.566V30.0099ZM115.001 29.3633C115.377 29.4977 115.209 29.4028 115.44 29.5709C115.07 29.4285 115.239 29.5293 115.001 29.3633ZM111.717 30.6683C111.114 30.9194 109.587 30.6406 109.316 30.4587C109.233 30.3796 109.158 30.3144 109.093 30.2274C109.447 29.9367 109.344 30.1008 109.532 29.5729C110.228 29.4701 111.116 29.8853 112.154 29.5729C113.03 29.3079 116.945 27.1685 117.416 26.5061H117.862C117.536 27.3089 112.686 30.2709 111.717 30.6683ZM154.231 26.2865C152.177 23.7239 146.818 21.7723 142.611 21.9008C141.246 22.8658 138.1 23.4273 136.479 24.3112C135.807 24.6849 134.775 25.3315 134.075 25.8555C133.406 26.5851 132.75 27.3068 132.089 28.0345C131.486 28.3904 130.97 28.1887 130.335 28.4774C129.535 28.8551 128.653 29.5947 127.713 30.0099C127.834 30.7099 127.905 30.6565 128.156 31.1093C129.6 31.4296 131.385 31.0163 133.189 31.5502C135.257 32.1572 139.922 34.7337 142.838 33.9527C147.811 32.6298 150.346 28.6811 156.203 28.2698C156.258 28.1907 156.347 28.1116 156.42 28.0365C156.11 26.6662 154.931 27.1684 154.231 26.2865ZM134.952 27.819V28.0326H134.506C134.705 27.5659 134.695 27.7261 134.952 27.384H135.166C135.259 27.8151 135.063 27.6687 134.952 27.819ZM147.657 24.7601H148.092C148.161 24.8293 148.23 24.9084 148.315 24.9776C147.989 25.5174 148.375 25.2346 147.657 25.4166V24.7601ZM141.513 24.3112C142.365 24.1866 144.032 23.7892 144.802 24.3112C145.43 24.3369 145.745 24.4041 146.126 24.5346V24.7581C145.529 24.8866 144.976 25.2979 144.584 25.4146C142.969 25.8555 142.603 24.4259 141.3 25.6222H140.855C141.108 25.806 141.232 25.8061 141.731 25.8535V26.2846C141.019 26.6603 140.738 27.032 139.769 27.1645C139.947 25.6736 140.807 25.2366 141.513 24.3112ZM143.054 25.6241C142.678 25.8575 142.551 25.8634 142.17 25.6241H143.054ZM141.958 27.3859C141.577 27.2436 141.735 27.3444 141.511 27.1684C141.899 27.3088 141.731 27.204 141.958 27.3859ZM139.979 28.2678C139.609 28.4537 139.698 28.4498 139.326 28.2678H139.979ZM138.889 26.0691H139.552C139.099 26.5871 138.982 26.3814 138.889 27.3859H137.576C138 26.9391 138.45 26.5041 138.889 26.0691ZM137.794 29.5709C137.193 29.4285 137.424 29.7113 137.361 29.1339H137.794V29.5709ZM142.403 31.9812C142.332 32.0603 142.259 32.1256 142.17 32.2067H141.731V31.7697H142.403V31.9812ZM145.025 31.5482V31.7697C144.489 31.4731 144.877 31.8765 144.582 31.3347H144.369C144.57 30.8601 144.554 31.0005 144.802 30.6664H145.678C145.478 31.3248 145.598 31.2674 145.025 31.5482ZM148.092 28.4774C147.803 28.5486 147.499 28.6297 147.222 28.7068V29.3633H147.872C147.473 29.6757 146.652 30.3935 145.893 30.2274C145.711 29.8616 145.697 29.5907 145.027 29.7943C144.412 29.9763 143.754 30.5516 142.842 30.6683V30.0099C141.762 30.178 140.629 30.7098 139.983 31.3367H139.103V31.1093C140.264 30.5477 141.144 29.7765 142.174 29.1359V28.9144C140.813 29.2367 139.502 29.8062 138.674 30.6703H138.235V30.2274C139.712 29.3633 141.642 28.5664 142.842 27.3859H143.267C143.089 27.2317 142.783 27.0973 142.615 26.9391C142.532 26.8719 142.46 26.7947 142.407 26.7255C142.929 26.4685 143.684 26.1936 144.153 25.8575H144.588C144.355 26.3657 144.169 26.4586 143.712 26.7255C144.011 26.9687 144.355 27.0696 144.808 27.1684V27.8209C145.256 27.7399 145.683 27.6766 146.132 27.6114C146.205 27.6766 146.275 27.7399 146.338 27.8209C146.132 28.0345 145.899 28.2698 145.685 28.4774H145.472V28.7068C146.338 28.5486 147.23 28.4063 148.1 28.2678V28.4774H148.092ZM148.968 27.819C147.629 27.5659 146.874 26.9668 145.248 26.9391C145.496 26.4566 145.555 26.6128 145.891 26.2865H146.124C145.927 25.8179 145.927 25.9761 145.676 25.6241C146.328 25.725 146.421 25.7428 146.771 26.0691H148.519C148.22 26.4922 148.244 26.5337 147.655 26.7255C148.005 27.1427 148.321 27.2554 148.966 27.3859V27.819H148.968ZM150.067 28.7068C149.895 28.4636 149.927 28.5051 149.84 28.0345H150.49C150.285 28.5209 150.295 28.3607 150.067 28.7068ZM143.265 28.0345C143.018 28.3825 143.022 28.2164 142.84 28.7068H142.403C142.929 29.037 143.307 28.8551 143.706 28.4774H143.926C143.603 27.9416 143.991 28.2164 143.265 28.0345ZM144.149 29.3633C144.792 29.2604 144.887 29.2525 145.25 28.9124H145.464V28.7068H144.369C144.289 28.9124 144.224 29.1359 144.149 29.3633Z" fill="white"/>
<path fill-rule="evenodd" clip-rule="evenodd" d="M123.546 26.4942C123.686 26.4012 122.78 24.6612 122.419 24.2341C121.618 23.2929 120.453 22.7432 119.47 21.9661C118.193 20.9597 117.351 19.1801 116.311 17.8988C116.235 17.8137 116.152 17.7445 116.073 17.6634C115.919 18.1222 116.004 18.3595 115.854 18.5691C115.781 18.6521 115.702 18.7174 115.623 18.8024V18.5691H115.174C115.53 17.8177 115.891 17.0031 116.073 16.0856C115.538 15.4311 115.462 14.4997 114.95 13.8195C114.648 13.428 114.112 13.3687 113.809 12.9139C112.757 12.8368 111.696 12.7558 110.65 12.6846C109.74 13.4834 108.619 13.4142 108.136 14.7212C106.521 17.0604 108.892 19.1346 109.956 20.6117C110.606 20.5978 111.193 20.5978 111.543 20.845C113.188 20.8074 114.294 20.0244 114.95 19.0278C115.207 19.4529 114.853 19.8741 114.95 20.1628C115.16 20.845 117.07 21.3136 117.663 21.7427C119.712 23.2099 121.361 25.4541 123.548 26.7216V26.4942H123.546ZM111.087 17.6634C110.952 18.0609 111.035 17.8928 110.849 18.1103C111.114 18.2903 111.077 18.2566 111.543 18.3397V18.5691C111.158 18.7075 111.336 18.6126 111.089 18.8024C110.062 18.6244 109.869 18.2665 108.828 18.1083C109 17.0604 108.619 15.5952 109.281 14.7212C109.509 14.4998 109.74 14.2684 109.958 14.0331H110.652V14.2664C110.222 14.4523 110.044 14.5828 109.511 14.7192C109.432 14.9446 109.347 15.17 109.283 15.3974C109.347 15.4726 109.432 15.5458 109.511 15.6249C110.541 15.4528 111.091 15.0613 112.004 14.7192C112.077 14.7825 112.156 14.8695 112.227 14.9446C111.579 15.6248 110.735 15.9451 109.742 16.309V16.7559C110.266 17.2581 110.128 17.4934 111.087 17.6634ZM111.777 14.0351C112.34 14.2031 112.56 14.3613 112.914 14.7231C112.35 14.5353 112.123 14.3989 111.777 14.0351ZM143.94 16.9872C143.805 15.5952 143.157 15.3737 142.587 14.4998C141.409 14.2328 140.337 14.0014 138.739 14.0351C137.998 14.9822 136.889 15.4844 136.466 16.7598V18.3397C135.562 19.0931 134.654 19.8563 133.745 20.6136C133.246 21.2938 133.134 22.2212 132.614 22.8796C132.647 23.7516 132.594 23.8347 133.063 24.2341C134.055 24.9202 136.169 20.4712 136.92 19.7021C137.12 19.5004 138.712 20.8647 139.184 21.2938C140.232 21.2562 141.599 21.1356 142.138 20.847C143.062 20.5247 143.681 19.7594 143.942 18.8024C144.244 18.3674 144.254 17.4183 143.94 16.9872ZM137.84 18.8024H137.365V18.3397C137.523 18.4208 137.672 18.49 137.84 18.5691V18.8024ZM142.137 17.8988C141.605 17.6279 141.707 17.6832 141.441 17.2146C140.869 17.4974 140.952 17.444 140.76 18.1083C140.145 18.1083 139.722 18.1084 139.4 17.8988H138.961V16.9872C139.647 16.8449 139.501 16.9378 139.865 16.5324H140.078C139.776 15.8522 139.574 16.0737 139.398 15.172C139.178 15.2492 138.959 15.3282 138.736 15.3994V14.9466C139.382 14.9328 139.965 14.9328 140.319 15.17C141.601 15.3164 141.401 15.7158 142.133 16.311C142.413 16.311 142.241 16.4514 142.585 16.0836H142.795C142.589 16.6827 142.338 17.2858 142.137 17.8988ZM126.266 33.2962C126.187 32.8434 126.118 32.3926 126.045 31.9358C125.462 31.9813 125.28 32.0327 124.912 32.1652C125.037 32.8632 124.954 32.7129 125.361 33.0708C124.88 34.364 123.459 35.1648 122.871 36.4619H122.654V39.418C123.255 40.9425 126.237 42.0004 128.072 40.9919C128.958 40.5134 129.401 39.1669 130.132 38.5005C130.031 35.319 128.323 34.4905 126.266 33.2962ZM127.176 35.1094C127.908 35.402 127.959 35.8371 128.536 36.2424V36.6972C127.872 36.276 127.362 36.0704 126.963 35.7856C126.775 36.0091 126.616 36.4065 126.488 36.6972C126.268 36.7664 126.045 36.8435 125.822 36.9285C125.742 36.8435 125.657 36.7664 125.584 36.6972C125.877 35.663 126.617 35.837 127.176 35.1094ZM128.07 40.0962C127.394 40.2623 126.709 40.5392 126.266 40.3216C125.644 40.3216 125.236 40.3058 124.91 40.0962H124.677C125.116 39.7304 125.582 39.5881 126.043 39.8708C127.053 39.853 127.273 39.7186 127.85 39.418C127.929 38.7299 127.989 38.0517 128.068 37.3735C128.604 37.5435 128.592 37.6147 128.981 37.8263C128.709 38.7853 128.248 39.066 128.07 40.0962Z" fill="white"/>
</svg>
