<svg width="70" height="71" viewBox="0 0 70 71" fill="none" xmlns="http://www.w3.org/2000/svg">
<path d="M35 70.0352C54.33 70.0352 70 54.3573 70 35.0176C70 15.6779 54.33 0 35 0C15.67 0 0 15.6779 0 35.0176C0 54.3573 15.67 70.0352 35 70.0352Z" fill="#6CB565"/>
<path d="M47.522 21C46.8609 21 46.3254 21.5359 46.3254 22.1973V22.5199L19.8805 26.9302V26.5797C19.8805 25.9182 19.345 25.3824 18.6839 25.3824C18.0229 25.3824 17.4873 25.9182 17.4873 26.5797V39.7262C17.4873 40.3877 18.0229 40.9236 18.6839 40.9236C19.345 40.9236 19.8805 40.3877 19.8805 39.7262V39.3757L24.6968 40.179V44.3585C24.6968 46.3665 26.3297 48 28.3365 48H35.4662C37.473 48 39.1059 46.3665 39.1059 44.3585V42.5821L46.3254 43.7861V44.1087C46.3254 44.7702 46.8609 45.306 47.522 45.306C48.183 45.306 48.7186 44.7702 48.7186 44.1087V22.1973C48.7186 21.5359 48.183 21 47.522 21ZM19.8805 29.358L41.5191 25.7494V40.5569L19.8805 36.9479V29.358ZM36.7127 44.3581C36.7127 45.0457 36.1534 45.6053 35.4662 45.6053H28.3365C27.6493 45.6053 27.09 45.0457 27.09 44.3581V40.5781L36.7127 42.1829V44.3581ZM43.9122 40.9556V25.3503L46.3254 24.9479V41.3581L43.9122 40.9556Z" fill="white"/>
<path d="M57.1345 31.9556H54.7313C54.0702 31.9556 53.5347 32.4914 53.5347 33.1529C53.5347 33.8144 54.0702 34.3502 54.7313 34.3502H57.1345C57.7955 34.3502 58.3311 33.8144 58.3311 33.1529C58.3311 32.4914 57.7955 31.9556 57.1345 31.9556Z" fill="white"/>
<path d="M52.3285 30.391C52.6347 30.391 52.9409 30.2742 53.1744 30.0401L54.8738 28.3397C55.3412 27.8724 55.3412 27.1141 54.8738 26.6464C54.4067 26.1791 53.6489 26.1791 53.1815 26.6464L51.4821 28.3468C51.0151 28.8146 51.0151 29.5729 51.4821 30.0401C51.7161 30.2742 52.0223 30.391 52.3285 30.391Z" fill="white"/>
<path d="M53.1744 36.2654C52.7073 35.7976 51.9495 35.7976 51.4821 36.2654C51.0151 36.7327 51.0151 37.491 51.4821 37.9587L53.1815 39.6591C53.4154 39.8927 53.7216 40.0096 54.0279 40.0096C54.3341 40.0096 54.6403 39.8927 54.8738 39.6591C55.3412 39.1913 55.3412 38.433 54.8738 37.9658L53.1744 36.2654Z" fill="white"/>
</svg>
