<svg width="38" height="23" viewBox="0 0 38 23" fill="none" xmlns="http://www.w3.org/2000/svg">
<path d="M36.7374 15.7658H0.517624C0.231896 15.7658 0 15.5339 0 15.2481C0 14.9623 0.231896 14.7304 0.517624 14.7304H36.7374C37.0231 14.7304 37.255 14.9623 37.255 15.2481C37.255 15.5339 37.0231 15.7658 36.7374 15.7658Z" fill="white"/>
<path d="M5.23882 22.1256C4.95309 22.1256 4.72119 21.8937 4.72119 21.6079V15.2484C4.72119 14.9626 4.95309 14.7307 5.23882 14.7307C5.52454 14.7307 5.75644 14.9626 5.75644 15.2484V21.6079C5.75644 21.8937 5.52454 22.1256 5.23882 22.1256Z" fill="white"/>
<path d="M18.627 22.1256C18.3413 22.1256 18.1094 21.8937 18.1094 21.6079V15.2484C18.1094 14.9626 18.3413 14.7307 18.627 14.7307C18.9127 14.7307 19.1446 14.9626 19.1446 15.2484V21.6079C19.1446 21.8937 18.913 22.1256 18.627 22.1256Z" fill="white"/>
<path d="M32.0164 22.1256C31.7307 22.1256 31.4988 21.8937 31.4988 21.6079V15.2484C31.4988 14.9626 31.7307 14.7307 32.0164 14.7307C32.3021 14.7307 32.534 14.9626 32.534 15.2484V21.6079C32.534 21.8937 32.3021 22.1256 32.0164 22.1256Z" fill="white"/>
<path d="M36.7374 22.1256H0.517624C0.231896 22.1256 0 21.8937 0 21.6079C0 21.3221 0.231896 21.0902 0.517624 21.0902H36.7374C37.0231 21.0902 37.255 21.3221 37.255 21.6079C37.255 21.8937 37.0231 22.1256 36.7374 22.1256Z" fill="white"/>
<path d="M17.5076 13.0872H2.59306C2.30734 13.0872 2.07544 12.8552 2.07544 12.5695V0.51771C2.07544 0.231934 2.30734 0 2.59306 0H17.5076C17.7934 0 18.0253 0.231934 18.0253 0.51771V12.5695C18.0253 12.8552 17.7936 13.0872 17.5076 13.0872ZM3.11069 12.0518H16.99V1.03542H3.11069V12.0518Z" fill="white"/>
<path d="M12.4773 3.3369H7.62383C7.3381 3.3369 7.1062 3.10497 7.1062 2.81919V0.664225C7.1062 0.378449 7.3381 0.146515 7.62383 0.146515C7.90955 0.146515 8.14145 0.378449 8.14145 0.664225V2.30148H11.9597V0.664225C11.9597 0.378449 12.1916 0.146515 12.4773 0.146515C12.7631 0.146515 12.995 0.378449 12.995 0.664225V2.81919C12.995 3.10497 12.7631 3.3369 12.4773 3.3369Z" fill="white"/>
<path d="M34.6617 13.0872H19.7469C19.4611 13.0872 19.2292 12.8552 19.2292 12.5695V0.51771C19.2292 0.231934 19.4611 0 19.7469 0H34.6617C34.9474 0 35.1793 0.231934 35.1793 0.51771V12.5695C35.1793 12.8552 34.9477 13.0872 34.6617 13.0872ZM20.2645 12.0518H34.1441V1.03542H20.2645V12.0518Z" fill="white"/>
<path d="M29.6314 3.3369H24.7776C24.4919 3.3369 24.26 3.10497 24.26 2.81919V0.664225C24.26 0.378449 24.4919 0.146515 24.7776 0.146515C25.0634 0.146515 25.2953 0.378449 25.2953 0.664225V2.30148H29.1138V0.664225C29.1138 0.378449 29.3457 0.146515 29.6314 0.146515C29.9171 0.146515 30.149 0.378449 30.149 0.664225V2.81919C30.149 3.10497 29.9171 3.3369 29.6314 3.3369Z" fill="white"/>
</svg>
