<svg width="211" height="158" viewBox="0 0 211 158" fill="none" xmlns="http://www.w3.org/2000/svg">
<path d="M137.583 129.692L129.214 131.729L124.738 128.723L132.784 125.029C133.82 124.546 134.262 123.326 133.783 122.318C133.279 121.317 132.073 120.882 131.014 121.351L120.77 126.081L116.71 123.37V112.872L120.77 110.164L131.014 114.884C131.307 115.016 131.604 115.088 131.897 115.088C132.661 115.088 133.42 114.646 133.785 113.91C134.263 112.911 133.822 111.679 132.785 111.211L124.725 107.514L129.225 104.514L137.583 106.56C137.758 106.605 137.929 106.619 138.103 106.619C139.027 106.619 139.877 106.015 140.099 105.077C140.392 104.021 139.703 102.909 138.598 102.632L133.787 101.464L136.845 99.4194C137.798 98.7904 138.04 97.5012 137.393 96.5929C136.75 95.6736 135.467 95.4145 134.506 96.0653L131.615 97.9929L132.242 93.1982C132.391 92.076 131.604 91.074 130.441 90.9117C129.327 90.7759 128.281 91.5594 128.13 92.6691L127.037 101.05L122.54 104.064L121.953 95.3567C121.883 94.247 120.886 93.3418 119.749 93.4604C118.608 93.5494 117.744 94.5014 117.827 95.633L118.573 106.714L114.753 109.273L105.339 103.933V99.2602L115.108 93.6352C116.092 93.0655 116.428 91.8294 115.853 90.8601C115.274 89.8893 114.003 89.5897 113.019 90.1375L105.341 94.5514V89.2244L111.792 83.6088C112.651 82.8721 112.728 81.586 111.959 80.7557C111.199 79.9113 109.88 79.8364 109.033 80.5856L105.341 83.8008V80.1907C105.341 79.081 104.419 78.1648 103.273 78.1648C102.13 78.1648 101.205 79.081 101.205 80.1907V83.6337L97.5154 80.4186C96.6496 79.6663 95.3502 79.724 94.5849 80.5762C93.8195 81.4018 93.8977 82.6864 94.7571 83.4402L101.205 89.0418V94.3812L93.5278 89.9674C92.5425 89.393 91.2749 89.7067 90.6945 90.6838C90.1173 91.6327 90.4506 92.886 91.4327 93.462L101.206 99.0807V103.933L91.7835 109.273L87.9665 106.714L88.7271 95.633C88.7956 94.5014 87.9379 93.5494 86.7963 93.4604C85.7009 93.3418 84.6661 94.247 84.5911 95.3567L83.9996 104.064L79.5114 101.068L78.4033 92.655C78.2518 91.5594 77.2075 90.7525 76.0803 90.9117C74.9435 91.074 74.143 92.076 74.3056 93.1982L74.9355 98.0054L72.0273 96.0653C71.0914 95.4145 69.8015 95.6736 69.1478 96.5929C68.4941 97.4997 68.7443 98.7889 69.6978 99.4194L72.7591 101.464L67.952 102.632C66.8486 102.911 66.171 104.022 66.4517 105.077C66.6829 106.017 67.5375 106.619 68.4447 106.619C68.6232 106.619 68.789 106.605 68.9628 106.56L77.3271 104.514L81.8265 107.514L73.7652 111.211C72.7304 111.679 72.2872 112.911 72.7798 113.91C73.1258 114.656 73.8736 115.088 74.6517 115.088C74.9451 115.088 75.2384 115.016 75.5334 114.884L85.7694 110.15L89.8128 112.861V123.387L85.7822 126.081L75.5334 121.351C74.4874 120.882 73.2693 121.319 72.7798 122.318C72.2872 123.326 72.7304 124.548 73.7652 125.029L81.8105 128.723L77.3334 131.729L68.9612 129.692C67.8563 129.427 66.7227 130.064 66.45 131.148C66.1694 132.233 66.8471 133.329 67.9504 133.607L72.7464 134.785L69.6962 136.822C68.7428 137.462 68.4925 138.729 69.1462 139.642C69.556 140.221 70.2049 140.536 70.857 140.536C71.2747 140.536 71.6701 140.432 72.0241 140.185L74.9322 138.245L74.3024 143.027C74.1398 144.15 74.9402 145.149 76.0771 145.292C76.1679 145.32 76.2572 145.32 76.3433 145.32C77.3637 145.32 78.2661 144.591 78.4001 143.56L79.5082 135.183L83.9964 132.169L84.588 140.877C84.6629 141.958 85.5606 142.776 86.6512 142.776C86.7022 142.776 86.7436 142.776 86.7931 142.776C87.9346 142.69 88.7924 141.738 88.7239 140.618L87.9634 129.524L92.0051 126.809L101.203 132.002V136.684L91.4295 142.314C90.4474 142.881 90.1142 144.125 90.6914 145.096C91.2717 146.052 92.5393 146.375 93.5246 145.807L101.202 141.401V146.716L94.7539 152.331C93.8945 153.076 93.8148 154.351 94.5817 155.183C95.3455 156.04 96.6464 156.088 97.5122 155.365L101.202 152.147V155.754C101.202 156.884 102.126 157.8 103.27 157.8C104.416 157.8 105.338 156.884 105.338 155.754V152.331L109.03 155.556C109.422 155.884 109.915 156.052 110.408 156.052C110.971 156.052 111.538 155.834 111.956 155.375C112.723 154.543 112.648 153.243 111.789 152.506L105.338 146.895V141.579L113.016 145.991C113.338 146.172 113.703 146.282 114.059 146.282C114.765 146.282 115.465 145.906 115.849 145.278C116.425 144.314 116.089 143.074 115.105 142.495L105.336 136.861V132.001L114.523 126.808L118.57 129.522L117.823 140.616C117.74 141.737 118.605 142.689 119.746 142.775C119.796 142.775 119.837 142.775 119.885 142.775C120.969 142.775 121.879 141.958 121.95 140.875L122.536 132.185L127.034 135.181L128.126 143.558C128.278 144.59 129.163 145.319 130.199 145.319C130.269 145.319 130.373 145.319 130.451 145.291C131.601 145.147 132.388 144.148 132.238 143.026L131.612 138.255L134.502 140.182C134.869 140.427 135.268 140.533 135.687 140.533C136.352 140.533 136.993 140.218 137.388 139.639C138.036 138.726 137.793 137.46 136.84 136.819L133.796 134.782L138.594 133.604C139.699 133.326 140.387 132.23 140.094 131.145C139.829 130.065 138.702 129.428 137.583 129.692ZM112.576 123.234L103.273 128.498L93.9582 123.234V112.716L103.273 107.44L112.576 112.716V123.234Z" fill="#8CB9DF"/>
<path d="M32.8294 44.0206C32.8294 43.1423 32.6928 42.3615 32.4195 41.6784C32.1657 40.9952 31.707 40.3706 31.0434 39.8045C30.3798 39.2385 29.4429 38.692 28.2327 38.165C27.042 37.6184 25.5196 37.0621 23.6653 36.4961C21.6353 35.8715 19.7615 35.1786 18.0438 34.4173C16.3457 33.6366 14.8622 32.7387 13.5935 31.7237C12.3248 30.6892 11.3391 29.5083 10.6364 28.181C9.93373 26.8342 9.58239 25.2825 9.58239 23.5258C9.58239 21.7886 9.94348 20.2076 10.6657 18.7827C11.4074 17.3578 12.4517 16.1281 13.7985 15.0936C15.1648 14.0396 16.7751 13.2296 18.6294 12.6635C20.4837 12.078 22.5332 11.7852 24.7778 11.7852C27.9399 11.7852 30.6628 12.3707 32.9465 13.5419C35.2497 14.713 37.0162 16.2843 38.2459 18.2557C39.4951 20.2271 40.1197 22.4035 40.1197 24.7848H32.8294C32.8294 23.3794 32.5268 22.1399 31.9218 21.0664C31.3362 19.9734 30.4383 19.1145 29.2281 18.4899C28.0375 17.8653 26.5248 17.553 24.69 17.553C22.9528 17.553 21.5084 17.8165 20.3568 18.3435C19.2052 18.8705 18.3464 19.583 17.7803 20.4808C17.2143 21.3787 16.9312 22.3937 16.9312 23.5258C16.9312 24.3261 17.1167 25.058 17.4875 25.7217C17.8584 26.3658 18.4244 26.9709 19.1857 27.5369C19.9469 28.0834 20.9033 28.6007 22.055 29.0887C23.2066 29.5766 24.5631 30.0451 26.1246 30.494C28.4864 31.1967 30.5457 31.9775 32.3024 32.8363C34.0591 33.6756 35.523 34.632 36.6941 35.7056C37.8653 36.7791 38.7436 37.999 39.3292 39.3654C39.9147 40.7122 40.2075 42.2444 40.2075 43.9621C40.2075 45.7578 39.8464 47.3779 39.1242 48.8223C38.402 50.2472 37.3675 51.4671 36.0207 52.4821C34.6934 53.4775 33.0929 54.2485 31.2191 54.7951C29.3648 55.3221 27.2958 55.5856 25.0121 55.5856C22.9626 55.5856 20.9424 55.3123 18.9515 54.7658C16.98 54.2192 15.1843 53.3897 13.5642 52.2771C11.9442 51.145 10.6559 49.7397 9.6995 48.061C8.74307 46.3629 8.26486 44.3817 8.26486 42.1175H15.6137C15.6137 43.5034 15.8479 44.6843 16.3164 45.6602C16.8044 46.6362 17.4778 47.4364 18.3366 48.061C19.1954 48.6661 20.1909 49.1151 21.323 49.4078C22.4746 49.7006 23.7043 49.847 25.0121 49.847C26.7297 49.847 28.1644 49.603 29.316 49.1151C30.4871 48.6271 31.3655 47.9439 31.951 47.0656C32.5366 46.1872 32.8294 45.1722 32.8294 44.0206ZM64.245 12.3707V55H56.9547V12.3707H64.245ZM77.6252 12.3707V18.2264H43.6916V12.3707H77.6252ZM97.0368 18.0507L84.3007 55H76.6005L92.645 12.3707H97.5638L97.0368 18.0507ZM107.694 55L94.9287 18.0507L94.3724 12.3707H99.3205L115.424 55H107.694ZM107.079 39.1897V45.0161H83.8908V39.1897H107.079ZM134.045 12.3707V55H126.754V12.3707H134.045ZM147.425 12.3707V18.2264H113.491V12.3707H147.425ZM160.893 12.3707V55H153.544V12.3707H160.893ZM195.207 41.1221H202.527C202.292 43.9133 201.512 46.4019 200.184 48.588C198.857 50.7546 196.993 52.4625 194.592 53.7118C192.191 54.961 189.273 55.5856 185.838 55.5856C183.203 55.5856 180.831 55.1171 178.723 54.1802C176.615 53.2238 174.81 51.877 173.307 50.1398C171.804 48.3831 170.652 46.2653 169.852 43.7864C169.071 41.3075 168.681 38.5358 168.681 35.4713V31.9287C168.681 28.8642 169.081 26.0925 169.881 23.6136C170.701 21.1347 171.872 19.0169 173.395 17.2602C174.917 15.484 176.742 14.1274 178.87 13.1905C181.017 12.2536 183.427 11.7852 186.101 11.7852C189.498 11.7852 192.367 12.4098 194.709 13.659C197.052 14.9082 198.867 16.6356 200.155 18.8413C201.463 21.0469 202.263 23.5746 202.556 26.4243H195.236C195.041 24.5896 194.612 23.0183 193.948 21.7105C193.304 20.4028 192.348 19.4073 191.079 18.7241C189.81 18.0215 188.151 17.6701 186.101 17.6701C184.423 17.6701 182.959 17.9824 181.71 18.607C180.461 19.2316 179.416 20.149 178.577 21.3592C177.738 22.5694 177.103 24.0626 176.674 25.8388C176.264 27.5955 176.059 29.6059 176.059 31.8701V35.4713C176.059 37.6184 176.244 39.5703 176.615 41.327C177.006 43.0642 177.591 44.5574 178.372 45.8066C179.172 47.0558 180.187 48.022 181.417 48.7052C182.647 49.3883 184.12 49.7299 185.838 49.7299C187.926 49.7299 189.615 49.3981 190.903 48.7344C192.211 48.0708 193.197 47.1046 193.86 45.8359C194.543 44.5476 194.992 42.9764 195.207 41.1221Z" fill="#8CB9DF"/>
</svg>
