<svg width="32" height="37" viewBox="0 0 32 37" fill="none" xmlns="http://www.w3.org/2000/svg">
<path d="M22.0581 20.884C25.0614 18.8193 27.0347 15.3581 27.0347 11.4447C27.0347 5.13412 21.9041 0 15.5972 0C9.29055 0 4.15983 5.13412 4.15983 11.4447C4.15983 15.3584 6.13311 18.8194 9.13637 20.884C3.75114 23.3445 0 28.782 0 35.0794V35.2964C0.000170359 36.2371 0.763036 37 1.70376 37H29.4909C30.4316 37 31.1945 36.2371 31.1945 35.2964V35.0794C31.1945 28.782 27.4434 23.3445 22.0581 20.884ZM7.56719 11.4446C7.56719 7.01267 11.1696 3.40702 15.5974 3.40702C20.0252 3.40702 23.6276 7.01267 23.6276 11.4446C23.6276 15.8765 20.0252 19.4821 15.5974 19.4821C11.1696 19.4821 7.56719 15.8761 7.56719 11.4446ZM3.49782 33.5926C4.23309 27.5696 9.37896 22.889 15.5976 22.889C21.8162 22.889 26.9621 27.5696 27.6974 33.5926H3.49782Z" fill="white"/>
</svg>
