<svg width="56" height="56" viewBox="0 0 56 56" fill="none" xmlns="http://www.w3.org/2000/svg">
<path d="M28 55.9503C43.464 55.9503 56 43.4254 56 27.9752C56 12.5249 43.464 0 28 0C12.536 0 0 12.5249 0 27.9752C0 43.4254 12.536 55.9503 28 55.9503Z" fill="#6AB354"/>
<path fill-rule="evenodd" clip-rule="evenodd" d="M17.9115 12C18.4231 12 18.9334 12 19.4437 12C22.5774 12.1361 25.6654 13.0954 28.8254 13.1037C31.9703 13.1134 35.0319 12.1305 38.1434 12C38.6759 12 39.2069 12 39.738 12C41.2106 12.1124 41.0761 14.2518 41.1482 16.051C41.4186 22.7509 41.639 29.2398 41.639 36.4312C41.639 39.0009 41.7735 43.0838 39.616 43.4295C39.1057 43.4295 38.594 43.4295 38.0824 43.4295C34.9819 43.3018 31.9397 42.3314 28.8254 42.3244C25.7083 42.3175 22.6661 43.3115 19.5671 43.4295C19.0554 43.4295 18.5451 43.4295 18.0349 43.4295C17.4386 43.2588 17.0365 43.0269 16.7453 42.5702C15.8551 41.1624 16.0104 37.8389 16.0104 35.4496C16.0104 28.715 16.2267 22.4399 16.5013 16.1732C16.5887 14.1754 16.3793 12.236 17.9115 12ZM17.9725 13.2272C17.6175 13.7159 17.6494 15.6248 17.605 16.7257C17.4525 20.5422 17.2916 24.1004 17.1752 27.7765C17.0615 31.4208 16.9977 35.4469 17.2362 39.0092C17.3166 40.1892 17.3665 41.8732 17.9115 42.2022C18.4509 42.5271 19.696 42.2342 20.6084 42.1398C21.6928 42.0287 22.5746 42.0023 23.3677 41.8344C25.5392 41.3707 27.4111 40.4128 29.4383 39.5618C29.7281 39.441 31.2742 38.6732 31.3379 39.6242C31.3823 40.2573 30.5337 40.3545 30.0512 40.5446C29.4216 40.7932 28.9835 40.9736 28.5176 41.2194C31.4822 41.3568 33.9919 41.8455 36.9176 42.1398C37.7358 42.2231 39.1501 42.5563 39.738 42.2022C40.294 41.8676 40.3371 40.1934 40.4119 39.0716C40.5117 37.6195 40.5367 36.5755 40.5367 35.3886C40.5367 30.0131 40.466 25.3873 40.2289 20.4088C40.1096 17.9169 40.0763 15.3277 39.738 13.2272C38.4124 12.994 36.7707 13.2869 35.3244 13.473C33.892 13.6562 32.4611 13.6979 30.9095 14.0255C28.7977 14.4698 26.6886 15.5304 24.7779 16.3578C24.3896 16.5258 22.8796 17.2421 22.9379 16.1732C22.9642 15.7137 23.4454 15.6303 23.7976 15.4985C25.0067 15.0445 26.1049 14.5475 27.1088 14.0866C24.111 13.8325 21.0258 13.0176 17.9725 13.2272Z" fill="white"/>
<path d="M35 33H33.2407V28.1078H24.7516V33H23V22H24.7516V26.4619H33.2407V22H35V33Z" fill="white"/>
</svg>
