<svg width="32" height="32" viewBox="0 0 32 32" fill="none" xmlns="http://www.w3.org/2000/svg">
<path d="M15.7392 31.4843C7.06066 31.4843 0 24.4225 0 15.7426C0 7.06265 7.06066 0.000854492 15.7392 0.000854492C24.4176 0.000854492 31.4783 7.06265 31.4783 15.7426C31.4783 24.4225 24.4179 31.4843 15.7392 31.4843ZM15.7392 1.03601C7.63134 1.03601 1.03525 7.63318 1.03525 15.7423C1.03525 23.8515 7.63134 30.4486 15.7392 30.4486C23.847 30.4486 30.443 23.8515 30.443 15.7423C30.443 7.63318 23.8472 1.03601 15.7392 1.03601Z" fill="white"/>
<path d="M7.6615 24.2893C7.31417 24.2893 6.9715 24.2331 6.6485 24.0985C6.10966 23.8738 5.41837 23.3264 5.18518 21.993C4.97891 20.8585 5.04801 19.5818 5.11478 18.347C5.14688 17.7501 5.17742 17.1866 5.17742 16.6487C5.17742 16.1028 5.03403 14.8494 4.89531 13.6369C4.7188 12.0952 4.55238 10.6386 4.59483 10.0425C4.62408 9.24312 4.7835 8.45776 4.93801 7.69802C5.17017 6.5544 5.38964 5.47447 5.18543 4.3311C5.13522 4.04973 5.32235 3.78078 5.60394 3.73056C5.88733 3.68008 6.15443 3.86775 6.20438 4.14913C6.44327 5.48689 6.19377 6.71567 5.9523 7.90407C5.7996 8.65579 5.65544 9.36609 5.62826 10.0986C5.59125 10.6166 5.76777 12.1586 5.92357 13.5194C6.07213 14.8176 6.21241 16.0438 6.21241 16.6487C6.21241 17.2143 6.17979 17.8187 6.14822 18.4027C6.08455 19.5777 6.01907 20.7927 6.20412 21.8111C6.32861 22.5237 6.60425 22.958 7.04682 23.1426C7.91539 23.5047 9.41132 22.8982 10.5076 22.1354C10.5154 22.1299 10.5237 22.1245 10.532 22.1193C12.3998 20.9698 13.3701 19.4793 13.498 17.5627C13.6292 15.3933 12.7932 14.6125 10.8702 13.684C9.20945 12.8899 6.69716 11.688 6.78308 9.11319C6.80172 8.53542 7.00566 8.08942 7.38896 7.78863C8.25961 7.10577 9.791 7.42881 11.1417 7.71407C11.692 7.8303 12.2114 7.93979 12.5784 7.95662C13.3121 7.98509 17.0064 8.00657 17.2205 5.65358C17.2797 4.94639 16.9818 4.2198 16.6669 3.45074C16.281 2.50877 15.8819 1.5347 16.0576 0.436117C16.1027 0.153706 16.3677 -0.0396637 16.6506 0.00693022C16.9327 0.051971 17.125 0.31756 17.0797 0.599971C16.95 1.41096 17.2779 2.21108 17.6247 3.05805C17.9723 3.90657 18.3315 4.78383 18.2518 5.74315C18.0199 8.29157 15.1518 9.0935 12.5349 8.991C12.0802 8.97055 11.5206 8.85251 10.9282 8.72723C9.9116 8.51315 8.51816 8.21858 8.02823 8.60324C7.94334 8.67002 7.82895 8.79867 7.81782 9.14735C7.75907 10.9011 9.44031 11.8529 11.3185 12.7511C13.5295 13.8186 14.6955 14.9118 14.5309 17.629C14.3813 19.8715 13.2223 21.6754 11.0866 22.994C10.5718 23.3507 9.0803 24.2893 7.6615 24.2893Z" fill="white"/>
<path d="M20.2042 30.8179C20.0991 30.8179 19.993 30.786 19.9011 30.7195C18.1613 29.4594 19.4339 27.0459 20.4565 25.1063C20.9097 24.2471 21.3781 23.3587 21.3781 22.9252C21.3781 22.3194 21.2751 22.308 20.6032 22.234C20.1923 22.1887 19.6808 22.1323 19.2077 21.8284C17.8909 20.9817 17.5542 18.8585 18.143 17.5971C19.1368 15.2542 22.2182 16.5348 24.2574 17.3821C24.775 17.5972 25.2645 17.8003 25.6164 17.9034C25.6304 17.9075 25.6439 17.9119 25.6573 17.9174C26.6165 18.2862 26.9568 18.2228 27.0743 18.1521C27.1499 18.1068 27.1988 17.9968 27.2203 17.8252C27.3181 17.1397 26.4547 16.5366 25.8243 16.0968L25.7585 16.0507C25.3136 15.7272 24.6586 15.501 24.0253 15.2817C22.5674 14.778 20.5704 14.0876 21.3305 11.7444C22.0723 9.51777 26.0846 7.06253 28.0226 6.46639C28.2946 6.38252 28.5855 6.5355 28.6694 6.80885C28.7535 7.0822 28.6 7.37187 28.327 7.45574C26.4027 8.04774 22.8699 10.3987 22.314 12.0675C21.9092 13.3159 22.5907 13.6903 24.3635 14.303C25.0688 14.5466 25.7979 14.7987 26.36 15.2077L26.4169 15.2473C27.22 15.8077 28.4331 16.6549 28.2462 17.9619C28.1691 18.5808 27.8554 18.8904 27.6062 19.0397C26.9493 19.4335 26.0344 19.1692 25.3053 18.8907C24.9024 18.7711 24.4187 18.5699 23.8599 18.3377C21.661 17.4242 19.642 16.7124 19.0882 18.0178C18.6562 18.944 19.0157 20.4733 19.7673 20.9568C20.0354 21.1295 20.3662 21.166 20.7163 21.2043C21.3918 21.2789 22.4131 21.3915 22.4131 22.9246C22.4131 23.6145 21.9307 24.5293 21.3724 25.5888C20.3095 27.6047 19.5706 29.2008 20.5083 29.8801C20.7399 30.0478 20.7917 30.3714 20.6239 30.603C20.5228 30.7436 20.3646 30.8179 20.2042 30.8179Z" fill="white"/>
</svg>
