<svg width="22" height="24" viewBox="0 0 22 24" fill="none" xmlns="http://www.w3.org/2000/svg">
<path d="M9.33437 23.0209H4.99178C4.7158 23.0209 4.49183 22.7971 4.49183 22.5214V5.09947H0.499953C0.223979 5.09947 0 4.87569 0 4.59996V1.27498C0 1.01599 0.197981 0.800197 0.456206 0.777469L9.29062 0.00223172C9.42911 -0.011255 9.5686 0.0369471 9.67209 0.131604C9.77558 0.226011 9.83432 0.359879 9.83432 0.499992V22.5219C9.83432 22.7971 9.61035 23.0209 9.33437 23.0209ZM5.49173 22.0219H8.83442V1.04496L0.999906 1.73253V4.10046H4.99178C5.26775 4.10046 5.49173 4.32424 5.49173 4.59996V22.0219Z" fill="white"/>
<path d="M21.078 23.0209H16.7357C16.4597 23.0209 16.2357 22.7971 16.2357 22.5214V5.09947H12.2436C11.9676 5.09947 11.7437 4.87569 11.7437 4.59996V1.27498C11.7437 1.01599 11.9416 0.800197 12.1999 0.777469L21.0343 0.00223172C21.1723 -0.011255 21.3123 0.0369471 21.4157 0.131604C21.5192 0.226011 21.578 0.359879 21.578 0.499992V22.5219C21.578 22.7971 21.3543 23.0209 21.078 23.0209ZM17.2356 22.0219H20.5781V1.04496L12.7436 1.73253V4.10046H16.7357C17.0117 4.10046 17.2356 4.32424 17.2356 4.59996V22.0219Z" fill="white"/>
</svg>
