<svg width="20" height="20" viewBox="0 0 20 20" fill="none" xmlns="http://www.w3.org/2000/svg">
<g clip-path="url(#clip0_2676_237)">
<path d="M19.5608 5.92708C19.5608 5.92708 19.3678 4.56489 18.7736 3.96676C18.0211 3.17954 17.1798 3.17568 16.7939 3.12937C14.031 2.92871 9.88265 2.92871 9.88265 2.92871H9.87493C9.87493 2.92871 5.72661 2.92871 2.96364 3.12937C2.57775 3.17568 1.73651 3.17954 0.98402 3.96676C0.389749 4.56489 0.200663 5.92708 0.200663 5.92708C0.200663 5.92708 0 7.52852 0 9.12611V10.6234C0 12.2209 0.196804 13.8224 0.196804 13.8224C0.196804 13.8224 0.389749 15.1846 0.980161 15.7827C1.73265 16.5699 2.72053 16.5429 3.16044 16.6278C4.74259 16.7783 9.87879 16.8246 9.87879 16.8246C9.87879 16.8246 14.031 16.8169 16.7939 16.6201C17.1798 16.5738 18.0211 16.5699 18.7736 15.7827C19.3678 15.1846 19.5608 13.8224 19.5608 13.8224C19.5608 13.8224 19.7576 12.2248 19.7576 10.6234V9.12611C19.7576 7.52852 19.5608 5.92708 19.5608 5.92708ZM7.83743 12.4409V6.88794L13.1743 9.67407L7.83743 12.4409Z" fill="white"/>
</g>
<defs>
<clipPath id="clip0_2676_237">
<rect width="19.7576" height="19.7576" fill="white"/>
</clipPath>
</defs>
</svg>
