<svg width="212" height="156" viewBox="0 0 212 156" fill="none" xmlns="http://www.w3.org/2000/svg">
<path d="M124.451 13.3438V56H118.797V13.3438H124.451ZM156.619 51.1074L167.459 59.6914L163.65 63.207L152.986 54.7402L156.619 51.1074ZM167.312 33.3242V36.0195C167.312 39.2227 166.912 42.0938 166.111 44.6328C165.31 47.1719 164.158 49.3301 162.654 51.1074C161.15 52.8848 159.344 54.2422 157.234 55.1797C155.144 56.1172 152.801 56.5859 150.203 56.5859C147.683 56.5859 145.369 56.1172 143.26 55.1797C141.17 54.2422 139.353 52.8848 137.81 51.1074C136.287 49.3301 135.105 47.1719 134.266 44.6328C133.426 42.0938 133.006 39.2227 133.006 36.0195V33.3242C133.006 30.1211 133.416 27.2598 134.236 24.7402C135.076 22.2012 136.258 20.043 137.781 18.2656C139.305 16.4688 141.111 15.1016 143.201 14.1641C145.31 13.2266 147.625 12.7578 150.144 12.7578C152.742 12.7578 155.096 13.2266 157.205 14.1641C159.314 15.1016 161.121 16.4688 162.625 18.2656C164.129 20.043 165.281 22.2012 166.082 24.7402C166.902 27.2598 167.312 30.1211 167.312 33.3242ZM161.717 36.0195V33.2656C161.717 30.7266 161.453 28.4805 160.926 26.5273C160.418 24.5742 159.666 22.9336 158.67 21.6055C157.674 20.2773 156.463 19.2715 155.037 18.5879C153.611 17.9043 151.98 17.5625 150.144 17.5625C148.406 17.5625 146.824 17.9043 145.398 18.5879C143.992 19.2715 142.781 20.2773 141.766 21.6055C140.75 22.9336 139.969 24.5742 139.422 26.5273C138.875 28.4805 138.601 30.7266 138.601 33.2656V36.0195C138.601 38.5781 138.875 40.8438 139.422 42.8164C139.969 44.7695 140.75 46.4199 141.766 47.7676C142.801 49.0957 144.031 50.1016 145.457 50.7852C146.883 51.4688 148.465 51.8105 150.203 51.8105C152.039 51.8105 153.67 51.4688 155.096 50.7852C156.521 50.1016 157.723 49.0957 158.699 47.7676C159.695 46.4199 160.447 44.7695 160.955 42.8164C161.463 40.8438 161.717 38.5781 161.717 36.0195ZM181.697 13.3438V56H176.043V13.3438H181.697ZM199.568 32.5332V37.1621H180.467V32.5332H199.568ZM202.469 13.3438V17.9727H180.467V13.3438H202.469Z" fill="#6AB354"/>
<path d="M96.6981 147.266H52.0911C50.8844 147.266 49.9067 146.289 49.9067 145.082V92.7194C49.9067 92.1813 50.106 91.6618 50.4673 91.2595L72.7661 66.4598C73.5948 65.54 75.1869 65.54 76.0155 66.4598L98.3218 91.2595C98.6812 91.6618 98.8824 92.1813 98.8824 92.7194V145.082C98.8824 146.289 97.9047 147.266 96.6981 147.266ZM54.2772 142.9H94.5138V93.5593L74.3899 71.1878L54.2753 93.5593V142.9H54.2772Z" fill="#6AB354"/>
<path d="M69.262 115.739H60.2921C59.0855 115.739 58.106 114.761 58.106 113.555V99.1995C58.106 97.9947 59.0836 97.0152 60.2921 97.0152H69.262C70.4668 97.0152 71.4462 97.9928 71.4462 99.1995V113.555C71.4462 114.759 70.4668 115.739 69.262 115.739ZM62.4745 111.37H67.0776V101.384H62.4745V111.37Z" fill="#6AB354"/>
<path d="M88.4711 115.739H79.5032C78.2984 115.739 77.3188 114.761 77.3188 113.555V99.1995C77.3188 97.9947 78.2965 97.0152 79.5032 97.0152H88.4711C89.6759 97.0152 90.6553 97.9928 90.6553 99.1995V113.555C90.6553 114.759 89.6778 115.739 88.4711 115.739ZM81.6874 111.37H86.2887V101.384H81.6874V111.37Z" fill="#6AB354"/>
<path d="M103.528 147.266C102.324 147.266 101.344 146.289 101.344 145.082V89.5406C101.344 88.3358 102.322 87.3564 103.528 87.3564C104.735 87.3564 105.713 88.3339 105.713 89.5406V145.082C105.713 146.289 104.735 147.266 103.528 147.266Z" fill="#6AB354"/>
<path d="M103.53 91.725C102.921 91.725 102.316 91.4717 101.882 90.9783L80.5944 66.6218C79.8011 65.7131 79.8941 64.3332 80.801 63.5381C81.7097 62.7448 83.0895 62.8398 83.8847 63.7467L105.172 88.1032C105.966 89.0119 105.874 90.3918 104.966 91.185C104.552 91.5481 104.04 91.725 103.53 91.725Z" fill="#6AB354"/>
<path d="M45.2496 147.266H2.18628C0.97963 147.266 0.00195312 146.289 0.00195312 145.082V108C0.00195312 106.795 0.97963 105.816 2.18628 105.816H45.2496C46.4563 105.816 47.4338 106.793 47.4338 108V145.082C47.4338 146.289 46.4563 147.266 45.2496 147.266ZM4.36868 142.9H43.0654V110.186H4.36868V142.9Z" fill="#6AB354"/>
<path d="M161.805 147.266H111.222C110.018 147.266 109.038 146.289 109.038 145.082V108C109.038 106.795 110.016 105.816 111.222 105.816H161.805C163.012 105.816 163.991 106.793 163.991 108V145.082C163.991 146.289 163.014 147.266 161.805 147.266ZM113.407 142.9H159.621V110.186H113.407V142.9Z" fill="#6AB354"/>
<path d="M183.14 147.267H169.818C168.613 147.267 167.634 146.289 167.634 145.082V87.7141C167.634 86.5093 168.611 85.5298 169.818 85.5298H183.14C184.344 85.5298 185.324 86.5075 185.324 87.7141V145.082C185.324 146.289 184.346 147.267 183.14 147.267ZM172.002 142.9H180.957V89.9003H172.002V142.9Z" fill="#6AB354"/>
<path d="M197.152 147.267H183.141C181.937 147.267 180.957 146.289 180.957 145.082V95.2335C180.957 94.0287 181.935 93.0492 183.141 93.0492H197.152C198.357 93.0492 199.336 94.0268 199.336 95.2335V145.082C199.336 146.289 198.357 147.267 197.152 147.267ZM185.324 142.9H194.968V97.4196H185.324V142.9Z" fill="#6AB354"/>
<path d="M197.031 103.9H111.222C110.018 103.9 109.038 102.922 109.038 101.715C109.038 100.509 110.016 99.5312 111.222 99.5312H197.031C198.236 99.5312 199.215 100.509 199.215 101.715C199.215 102.922 198.237 103.9 197.031 103.9Z" fill="#6AB354"/>
<path d="M197.031 121.891H163.423C162.219 121.891 161.239 120.914 161.239 119.707C161.239 118.5 162.217 117.521 163.423 117.521H197.031C198.236 117.521 199.215 118.499 199.215 119.707C199.215 120.914 198.238 121.891 197.031 121.891Z" fill="#6AB354"/>
<path d="M133.483 118.681H117.078V122.781H133.483V118.681Z" fill="#6AB354"/>
<path d="M155.957 118.681H139.546V122.781H155.957V118.681Z" fill="#6AB354"/>
<path d="M45.2498 128.213H12.6106C11.7465 128.213 10.9645 127.705 10.6144 126.913C10.2644 126.124 10.4133 125.2 10.9943 124.561L17.6607 117.214C18.0741 116.757 18.6624 116.497 19.2788 116.497H45.2536C46.4602 116.497 47.4378 117.474 47.4378 118.681V126.029C47.4341 127.235 46.4565 128.213 45.2498 128.213ZM17.5415 123.843H43.0674V120.863H20.2453L17.5415 123.843Z" fill="#6AB354"/>
<path d="M19.1018 147.267C17.8952 147.267 16.9175 146.289 16.9175 145.083V126.541C16.9175 125.337 17.8952 124.357 19.1018 124.357C20.3085 124.357 21.286 125.335 21.286 126.541V145.083C21.286 146.289 20.3085 147.267 19.1018 147.267Z" fill="#6AB354"/>
<path d="M195.709 156.004H2.18422C0.977564 156.004 0 155.027 0 153.82C0 152.613 0.977564 151.636 2.18422 151.636H195.709C196.915 151.636 197.895 152.613 197.895 153.82C197.895 155.027 196.917 156.004 195.709 156.004Z" fill="#6AB354"/>
<path d="M106.5 33H3V72.5" stroke="#6AB354" stroke-width="4" stroke-linecap="round"/>
</svg>
